<svg xmlns="http://www.w3.org/2000/svg" enable-background="new 0 0 75 75" viewBox="0 0 75 75" id="download"><path fill="#41d88d" d="M50.279 39.104c-1.062-1.063-2.914-1.063-3.978 0l-8.114 8.114c-.391.391-1.023.391-1.414 0l-8.114-8.114c-.531-.532-1.237-.824-1.988-.824-.751 0-1.458.293-1.989.824-.529.53-.821 1.236-.821 1.988 0 .752.292 1.459.822 1.99l10.81 10.81c1.064 1.062 2.915 1.062 3.978-.001l10.811-10.81C51.376 41.984 51.375 40.201 50.279 39.104zM37.462 6.539c-1.551 0-2.813 1.261-2.813 2.812v23.356c0 1.551 1.262 2.813 2.813 2.813 1.55 0 2.812-1.262 2.812-2.813V9.351C40.273 7.8 39.012 6.539 37.462 6.539z"></path><path d="M37.462,37.519c-2.654,0-4.813-2.159-4.813-4.813V9.351c0-2.653,2.159-4.812,4.813-4.812c2.653,0,4.812,2.159,4.812,4.812v23.356C42.273,35.36,40.115,37.519,37.462,37.519z M37.462,6.539c-1.551,0-2.813,1.261-2.813,2.812v23.356c0,1.551,1.262,2.813,2.813,2.813c1.55,0,2.812-1.262,2.812-2.813V9.351C40.273,7.8,39.012,6.539,37.462,6.539z"></path><path fill="#41d88d" d="M55.644,62.837H19.356c-1.551,0-2.813,1.262-2.813,2.813s1.262,2.812,2.813,2.812h36.287c1.551,0,2.813-1.262,2.813-2.813S57.194,62.837,55.644,62.837z"></path><path d="M55.644,70.461H19.356c-2.654,0-4.813-2.159-4.813-4.812c0-2.654,2.159-4.813,4.813-4.813h36.287c2.654,0,4.813,2.159,4.813,4.812C60.456,68.303,58.297,70.461,55.644,70.461z M19.356,62.837c-1.551,0-2.813,1.262-2.813,2.813s1.262,2.812,2.813,2.812h36.287c1.551,0,2.813-1.262,2.813-2.813s-1.262-2.812-2.813-2.812H19.356z"></path><path fill="#fff" d="M39.403,53.793c-1.018,0-1.975-0.396-2.696-1.116l-10.81-10.811c-0.718-0.719-1.114-1.676-1.114-2.696c0-0.056,0.015-0.108,0.018-0.163c-0.038,0.034-0.082,0.061-0.119,0.098c-0.529,0.53-0.821,1.236-0.821,1.988c0,0.752,0.292,1.459,0.822,1.99l10.81,10.81c1.064,1.062,2.915,1.062,3.978-0.001l0.115-0.115C39.524,53.779,39.465,53.793,39.403,53.793z"></path><path d="M37.48,56.715c-1.284,0-2.492-0.5-3.402-1.409L23.268,44.496c-0.908-0.909-1.407-2.117-1.407-3.403c0-1.286,0.5-2.494,1.407-3.402c0.91-0.909,2.118-1.41,3.404-1.41c1.286,0,2.495,0.501,3.403,1.411l7.407,7.406l7.407-7.407c0.909-0.909,2.118-1.41,3.403-1.41c1.286,0,2.495,0.501,3.403,1.411c1.875,1.875,1.876,4.927,0.001,6.804L40.884,55.306C39.974,56.215,38.766,56.715,37.48,56.715z M26.671,38.28c-0.751,0-1.458,0.293-1.989,0.824c-0.529,0.53-0.821,1.236-0.821,1.988c0,0.752,0.292,1.459,0.822,1.99l10.81,10.81c1.064,1.062,2.915,1.062,3.978-0.001l10.811-10.81c1.096-1.097,1.095-2.88-0.001-3.977c-1.062-1.063-2.914-1.063-3.978,0l-8.114,8.114c-0.391,0.391-1.023,0.391-1.414,0l-8.114-8.114C28.128,38.573,27.422,38.28,26.671,38.28z"></path><path fill="#ef3039" d="M497.52 13.743c.256 0 .512.098.707.293l8.113 8.114c1.064 1.063 2.916 1.063 3.979 0 .529-.529.82-1.235.82-1.988s-.291-1.459-.82-1.989L499.508 7.362c-1.063-1.063-2.914-1.062-3.977.001l-10.813 10.81c-1.095 1.097-1.094 2.881.002 3.977 1.066 1.064 2.919 1.062 3.976.001l8.116-8.115C497.008 13.84 497.264 13.743 497.52 13.743zM497.539 25.735c-1.551 0-2.813 1.262-2.813 2.813v22.356c0 1.551 1.262 2.812 2.813 2.812s2.813-1.261 2.813-2.812V28.547C500.352 26.997 499.09 25.735 497.539 25.735z"></path><path d="M497.539,55.715c-2.653,0-4.813-2.159-4.813-4.812V28.547c0-2.654,2.159-4.813,4.813-4.813s4.813,2.159,4.813,4.813v22.356C502.352,53.557,500.192,55.715,497.539,55.715z M497.539,25.735c-1.551,0-2.813,1.262-2.813,2.813v22.356c0,1.551,1.262,2.812,2.813,2.812s2.813-1.261,2.813-2.812V28.547C500.352,26.997,499.09,25.735,497.539,25.735z"></path><path fill="#ef3039" d="M515.645,62.837h-36.289c-1.551,0-2.813,1.262-2.813,2.813s1.262,2.812,2.813,2.812h36.289c1.551,0,2.813-1.262,2.813-2.813S517.195,62.837,515.645,62.837z"></path><path d="M515.645,70.461h-36.289c-2.653,0-4.813-2.159-4.813-4.812c0-2.654,2.159-4.813,4.813-4.813h36.289c2.653,0,4.813,2.159,4.813,4.812C520.457,68.303,518.298,70.461,515.645,70.461z M479.355,62.837c-1.551,0-2.813,1.262-2.813,2.813s1.262,2.812,2.813,2.812h36.289c1.551,0,2.813-1.262,2.813-2.813s-1.262-2.812-2.813-2.812H479.355z"></path><path fill="#fff" d="M510.318,22.149c0.529-0.529,0.82-1.235,0.82-1.988s-0.291-1.459-0.82-1.989L499.508,7.362c-1.063-1.063-2.914-1.062-3.977,0.001l-0.074,0.074c0.061-0.003,0.12-0.018,0.181-0.018c1.018,0,1.975,0.396,2.695,1.116l10.811,10.811c0.719,0.719,1.114,1.676,1.114,2.696c0,0.059-0.017,0.114-0.019,0.172C510.264,22.19,510.294,22.174,510.318,22.149z"></path><path d="M508.33,24.974c-1.285,0-2.494-0.5-3.404-1.41l-7.406-7.407l-7.408,7.407c-0.906,0.909-2.115,1.41-3.402,1.41c-1.284,0-2.492-0.5-3.402-1.41c-1.875-1.875-1.877-4.928-0.003-6.805l10.813-10.811c0.909-0.909,2.118-1.41,3.402-1.41s2.492,0.5,3.402,1.409l10.811,10.811c0.907,0.907,1.406,2.115,1.406,3.403c0,1.288-0.499,2.496-1.406,3.403C510.823,24.473,509.615,24.974,508.33,24.974z M497.52,13.743c0.256,0,0.512,0.098,0.707,0.293l8.113,8.114c1.064,1.063,2.916,1.063,3.979,0c0.529-0.529,0.82-1.235,0.82-1.988s-0.291-1.459-0.82-1.989L499.508,7.362c-1.063-1.063-2.914-1.062-3.977,0.001l-10.813,10.81c-1.095,1.097-1.094,2.881,0.002,3.977c1.066,1.064,2.919,1.062,3.976,0.001l8.116-8.115C497.008,13.84,497.264,13.743,497.52,13.743z"></path><path fill="#ef3039" d="M68.5,267.5c0-0.751-0.292-1.458-0.824-1.989L56.866,254.7c-0.531-0.531-1.237-0.823-1.988-0.823c-0.751,0-1.457,0.292-1.988,0.824c-0.531,0.531-0.823,1.237-0.823,1.989s0.292,1.458,0.822,1.989l8.114,8.114c0.391,0.391,0.391,1.023,0,1.414l-8.114,8.114c-0.53,0.53-0.822,1.236-0.822,1.989c0,0.752,0.292,1.458,0.822,1.988c1.064,1.063,2.916,1.063,3.977,0l10.81-10.81C68.208,268.958,68.5,268.252,68.5,267.5z"></path><path fill="#ef3039" d="M9.312,270.332h40.379c1.551,0,2.813-1.262,2.813-2.813c0-1.55-1.262-2.812-2.813-2.812H9.312c-1.551,0-2.812,1.261-2.812,2.812C6.5,269.07,7.761,270.332,9.312,270.332z"></path><path d="M49.691,272.332H9.312c-2.653,0-4.812-2.159-4.812-4.813c0-2.653,2.159-4.812,4.812-4.812h40.379c2.654,0,4.813,2.158,4.813,4.812C54.503,270.173,52.345,272.332,49.691,272.332z M9.312,264.707c-1.551,0-2.812,1.261-2.812,2.812c0,1.552,1.261,2.813,2.812,2.813h40.379c1.551,0,2.813-1.262,2.813-2.813c0-1.55-1.262-2.812-2.813-2.812H9.312z"></path><path fill="#fff" d="M66.258,268.071l-10.81,10.81c-0.72,0.721-1.677,1.117-2.696,1.117c-0.041,0-0.08-0.01-0.121-0.012c0.081,0.108,0.16,0.216,0.257,0.313c1.064,1.063,2.916,1.063,3.977,0l10.81-10.81c0.532-0.531,0.824-1.237,0.824-1.989c0-0.751-0.292-1.458-0.824-1.989l-0.319-0.319c0.003,0.062,0.018,0.121,0.018,0.183C67.375,266.393,66.978,267.351,66.258,268.071z"></path><path d="M54.877,283.123c-1.285,0-2.494-0.501-3.403-1.41c-0.908-0.907-1.408-2.116-1.408-3.403c0-1.286,0.5-2.495,1.408-3.402l7.407-7.407l-7.407-7.407c-0.908-0.908-1.408-2.116-1.408-3.403s0.5-2.495,1.408-3.403c0.908-0.909,2.116-1.41,3.402-1.41c1.286,0,2.494,0.5,3.402,1.409l10.811,10.811c0.909,0.91,1.41,2.118,1.41,3.403c0,1.286-0.501,2.495-1.41,3.403l-10.81,10.81C57.372,282.622,56.163,283.123,54.877,283.123z M54.877,253.877c-0.751,0-1.457,0.292-1.988,0.824c-0.531,0.531-0.823,1.237-0.823,1.989s0.292,1.458,0.822,1.989l8.114,8.114c0.391,0.391,0.391,1.023,0,1.414l-8.114,8.114c-0.53,0.53-0.822,1.236-0.822,1.989c0,0.752,0.292,1.458,0.822,1.988c1.064,1.063,2.916,1.063,3.977,0l10.81-10.81c0.532-0.531,0.824-1.237,0.824-1.989c0-0.751-0.292-1.458-0.824-1.989L56.866,254.7C56.335,254.169,55.628,253.877,54.877,253.877z"></path><path fill="#f2bf1c" d="M6.5,382.5c0,0.751,0.292,1.458,0.824,1.989l10.81,10.811c1.062,1.063,2.915,1.061,3.976-0.001c0.531-0.53,0.823-1.236,0.823-1.988c0-0.753-0.292-1.459-0.822-1.989l-8.114-8.114c-0.391-0.391-0.391-1.023,0-1.414l8.114-8.114c0.53-0.53,0.822-1.236,0.822-1.989c0-0.752-0.292-1.458-0.822-1.988c-0.532-0.531-1.238-0.824-1.989-0.824c-0.751,0-1.458,0.293-1.988,0.824l-10.81,10.81C6.792,381.042,6.5,381.748,6.5,382.5z"></path><path fill="#f2bf1c" d="M65.688,379.668H25.309c-1.551,0-2.813,1.262-2.813,2.813c0,1.55,1.262,2.812,2.813,2.812h40.379c1.551,0,2.812-1.262,2.812-2.812C68.5,380.93,67.239,379.668,65.688,379.668z"></path><path d="M65.688,387.293H25.309c-2.654,0-4.813-2.158-4.813-4.812c0-2.654,2.159-4.813,4.813-4.813h40.379c2.653,0,4.812,2.159,4.812,4.813C70.5,385.135,68.341,387.293,65.688,387.293z M25.309,379.668c-1.551,0-2.813,1.262-2.813,2.813c0,1.55,1.262,2.812,2.813,2.812h40.379c1.551,0,2.812-1.262,2.812-2.812c0-1.552-1.261-2.813-2.812-2.813H25.309z"></path><path fill="#fff" d="M8.992,382.179l10.81-10.81c0.72-0.721,1.677-1.117,2.696-1.117c0.011,0,0.022,0.003,0.033,0.003c-0.118-0.198-0.252-0.387-0.419-0.554c-0.532-0.531-1.238-0.824-1.989-0.824c-0.751,0-1.458,0.293-1.988,0.824l-10.81,10.81C6.792,381.042,6.5,381.748,6.5,382.5c0,0.751,0.292,1.458,0.824,1.989l0.569,0.569c-0.003-0.062-0.018-0.121-0.018-0.183C7.875,383.857,8.272,382.899,8.992,382.179z"></path><path d="M20.123,398.123c-1.286,0-2.494-0.5-3.402-1.409L5.91,385.903C5,384.994,4.5,383.785,4.5,382.5c0-1.286,0.501-2.495,1.41-3.403l10.81-10.81c0.909-0.909,2.117-1.41,3.403-1.41c1.285,0,2.494,0.501,3.403,1.41c0.908,0.907,1.408,2.116,1.408,3.403c0,1.286-0.5,2.495-1.408,3.402l-7.407,7.407l7.407,7.407c0.908,0.907,1.408,2.116,1.408,3.403c0,1.286-0.5,2.495-1.408,3.402C22.617,397.622,21.409,398.123,20.123,398.123z M20.123,368.877c-0.751,0-1.458,0.293-1.988,0.824l-10.81,10.81C6.792,381.042,6.5,381.748,6.5,382.5c0,0.751,0.292,1.458,0.824,1.989l10.81,10.811c1.062,1.063,2.915,1.061,3.976-0.001c0.531-0.53,0.823-1.236,0.823-1.988c0-0.753-0.292-1.459-0.822-1.989l-8.114-8.114c-0.391-0.391-0.391-1.023,0-1.414l8.114-8.114c0.53-0.53,0.822-1.236,0.822-1.989c0-0.752-0.292-1.458-0.822-1.988C21.58,369.17,20.874,368.877,20.123,368.877z"></path><path fill="#41d88d" d="M496.793,358.997c0.391-0.391,1.023-0.391,1.414,0l8.114,8.113c0.53,0.53,1.236,0.822,1.989,0.822c0.752,0,1.458-0.291,1.988-0.821c0.531-0.531,0.824-1.238,0.824-1.989s-0.293-1.457-0.824-1.987l-10.81-10.811c-0.531-0.531-1.237-0.824-1.989-0.824c-0.751,0-1.458,0.293-1.989,0.824L484.7,363.135c-0.531,0.531-0.823,1.237-0.823,1.988s0.293,1.457,0.824,1.987c1.095,1.097,2.879,1.098,3.978,0.001L496.793,358.997z"></path><path fill="#41d88d" d="M497.519,367.497c-1.55,0-2.812,1.262-2.812,2.813v40.379c0,1.55,1.262,2.812,2.812,2.812c1.552,0,2.813-1.262,2.813-2.813V370.31C500.332,368.759,499.07,367.497,497.519,367.497z"></path><path d="M497.519,415.5c-2.653,0-4.812-2.158-4.812-4.812V370.31c0-2.653,2.158-4.813,4.812-4.813c2.654,0,4.813,2.159,4.813,4.813v40.378C502.332,413.341,500.173,415.5,497.519,415.5z M497.519,367.497c-1.55,0-2.812,1.262-2.812,2.813v40.379c0,1.55,1.262,2.812,2.812,2.812c1.552,0,2.813-1.262,2.813-2.813V370.31C500.332,368.759,499.07,367.497,497.519,367.497z"></path><path d="M508.311,369.933C508.311,369.933,508.311,369.933,508.311,369.933c-1.287,0-2.496-0.5-3.403-1.408l-7.407-7.406l-7.407,7.407c-1.876,1.876-4.928,1.878-6.806,0c-0.909-0.908-1.41-2.116-1.41-3.402c0-1.285,0.5-2.494,1.409-3.402l10.811-10.811c0.909-0.909,2.118-1.41,3.403-1.41c1.287,0,2.495,0.501,3.404,1.41l10.809,10.81c0.909,0.908,1.41,2.116,1.41,3.402c0,1.285-0.501,2.494-1.41,3.403C510.806,369.434,509.597,369.933,508.311,369.933z M497.5,351.5c-0.751,0-1.458,0.293-1.989,0.824L484.7,363.135c-0.531,0.531-0.823,1.237-0.823,1.988s0.293,1.457,0.824,1.987c1.095,1.097,2.879,1.098,3.978,0.001l8.114-8.114c0.391-0.391,1.023-0.391,1.414,0l8.114,8.113c0.53,0.53,1.236,0.822,1.989,0.822l0,0c0.752,0,1.458-0.291,1.988-0.821c0.531-0.531,0.824-1.238,0.824-1.989s-0.293-1.457-0.824-1.987l-10.81-10.811C498.958,351.793,498.252,351.5,497.5,351.5z"></path><path fill="#fff" d="M510.299,363.135l-10.81-10.811c-0.531-0.531-1.237-0.824-1.989-0.824c-0.751,0-1.458,0.293-1.989,0.824l-0.84,0.84c0.062-0.003,0.121-0.018,0.183-0.018c1.019,0,1.977,0.397,2.696,1.117l10.81,10.81c0.699,0.698,1.085,1.621,1.108,2.605c0.305-0.138,0.588-0.324,0.831-0.567c0.531-0.531,0.824-1.238,0.824-1.989S510.83,363.665,510.299,363.135z"></path><path fill="#41d88d" d="M289.078 478.134l-10.81-10.81c-1.063-1.063-2.915-1.063-3.978 0l-10.811 10.811c-.531.531-.823 1.237-.823 1.988s.292 1.457.824 1.988c1.061 1.061 2.917 1.061 3.977 0l8.114-8.114c.195-.195.451-.293.707-.293s.512.098.707.293l8.114 8.114c1.099 1.096 2.881 1.096 3.978 0 .531-.531.824-1.237.824-1.988S289.609 478.665 289.078 478.134zM260.708 486.133c-.532-.531-1.238-.824-1.989-.824-.751 0-1.458.293-1.988.824l-10.81 10.81c-.532.531-.824 1.237-.824 1.989 0 .751.292 1.458.824 1.989l10.81 10.811c1.062 1.063 2.915 1.062 3.976-.001.531-.53.823-1.236.823-1.988 0-.753-.292-1.459-.822-1.989l-8.114-8.114c-.391-.391-.391-1.023 0-1.414l8.114-8.114c.53-.53.822-1.236.822-1.989C261.53 487.369 261.238 486.663 260.708 486.133z"></path><path d="M258.72,514.555c-1.286,0-2.494-0.5-3.402-1.409l-10.811-10.811c-0.909-0.909-1.41-2.118-1.41-3.403c0-1.286,0.501-2.495,1.41-3.403l10.81-10.81c0.909-0.909,2.117-1.41,3.403-1.41c1.285,0,2.494,0.501,3.403,1.41c0.908,0.907,1.408,2.116,1.408,3.403c0,1.286-0.5,2.495-1.408,3.402l-7.407,7.407l7.407,7.407c0.908,0.907,1.408,2.116,1.408,3.403c0,1.286-0.5,2.495-1.408,3.402C261.214,514.054,260.006,514.555,258.72,514.555z M258.72,485.309c-0.751,0-1.458,0.293-1.988,0.824l-10.81,10.81c-0.532,0.531-0.824,1.237-0.824,1.989c0,0.751,0.292,1.458,0.824,1.989l10.81,10.811c1.062,1.063,2.915,1.062,3.976-0.001c0.531-0.53,0.823-1.236,0.823-1.988c0-0.753-0.292-1.459-0.822-1.989l-8.114-8.114c-0.391-0.391-0.391-1.023,0-1.414l8.114-8.114c0.53-0.53,0.822-1.236,0.822-1.989c0-0.752-0.292-1.458-0.822-1.988C260.177,485.602,259.471,485.309,258.72,485.309z"></path><path fill="#41d88d" d="M276.299,528.5c1.551,0,2.813-1.262,2.813-2.813V485.31c0-1.551-1.262-2.813-2.813-2.813s-2.813,1.262-2.813,2.813v9.79c0,0.553-0.447,1-1,1h-8.58c-1.551,0-2.813,1.262-2.813,2.813c0,1.55,1.262,2.812,2.813,2.812h8.58c0.553,0,1,0.447,1,1v22.963C273.486,527.238,274.748,528.5,276.299,528.5z"></path><path d="M276.299,530.5c-2.653,0-4.813-2.159-4.813-4.813v-21.963h-7.58c-2.654,0-4.813-2.158-4.813-4.812c0-2.654,2.159-4.813,4.813-4.813h7.58v-8.79c0-2.653,2.159-4.813,4.813-4.813s4.813,2.159,4.813,4.813v40.378C281.111,528.341,278.952,530.5,276.299,530.5z M263.907,496.1c-1.551,0-2.813,1.262-2.813,2.813c0,1.55,1.262,2.812,2.813,2.812h8.58c0.553,0,1,0.447,1,1v22.963c0,1.551,1.262,2.813,2.813,2.813s2.813-1.262,2.813-2.813V485.31c0-1.551-1.262-2.813-2.813-2.813s-2.813,1.262-2.813,2.813v9.79c0,0.553-0.447,1-1,1H263.907z"></path><path fill="#fff" d="M289.078,478.134l-10.81-10.81c-1.063-1.063-2.915-1.063-3.978,0l-0.412,0.412c0.061-0.003,0.12-0.018,0.182-0.018c1.019,0,1.977,0.397,2.696,1.117l10.81,10.81c0.721,0.72,1.117,1.677,1.117,2.696c0,0.034-0.009,0.066-0.01,0.099c0.142-0.097,0.278-0.204,0.404-0.329c0.531-0.531,0.824-1.237,0.824-1.988S289.609,478.665,289.078,478.134z"></path><path d="M265.47,484.933c-1.287,0-2.495-0.499-3.403-1.407c-0.909-0.908-1.41-2.116-1.41-3.402c0-1.285,0.5-2.494,1.409-3.402l10.811-10.811c0.909-0.909,2.117-1.41,3.402-1.41s2.494,0.501,3.403,1.41l10.81,10.81c0.909,0.909,1.41,2.118,1.41,3.403s-0.501,2.493-1.41,3.402c-1.878,1.878-4.93,1.876-6.806,0l-7.407-7.407l-7.407,7.407C267.965,484.434,266.756,484.933,265.47,484.933z M276.279,473.704c0.256,0,0.512,0.098,0.707,0.293l8.114,8.114c1.099,1.096,2.881,1.096,3.978,0c0.531-0.531,0.824-1.237,0.824-1.988s-0.293-1.458-0.824-1.989l-10.81-10.81c-1.063-1.063-2.915-1.063-3.978,0l-10.811,10.811c-0.531,0.531-0.823,1.237-0.823,1.988s0.292,1.457,0.824,1.988c1.061,1.061,2.917,1.061,3.977,0l8.114-8.114C275.768,473.802,276.023,473.704,276.279,473.704z"></path><path fill="#37c3f4" d="M367.093,467.344c-0.531-0.531-1.238-0.824-1.989-0.824s-1.457,0.293-1.987,0.824l-10.811,10.81c-0.531,0.531-0.824,1.237-0.824,1.989c0,0.75,0.293,1.457,0.824,1.988l10.81,10.811c1.063,1.063,2.914,1.063,3.977,0c0.53-0.53,0.822-1.236,0.822-1.988c0-0.753-0.292-1.459-0.822-1.989l-8.113-8.114c-0.391-0.391-0.391-1.023,0-1.414l8.113-8.114c0.53-0.53,0.822-1.236,0.822-1.989C367.914,468.58,367.623,467.874,367.093,467.344z"></path><path fill="#fff" d="M353.598,479.446l10.81-10.81c0.72-0.721,1.677-1.117,2.696-1.117c0.049,0,0.096,0.013,0.145,0.015c-0.053-0.063-0.097-0.132-0.156-0.19c-0.531-0.531-1.238-0.824-1.989-0.824s-1.457,0.293-1.987,0.824l-10.811,10.81c-0.531,0.531-0.824,1.237-0.824,1.989c0,0.75,0.293,1.457,0.824,1.988l0.193,0.193c-0.003-0.061-0.018-0.12-0.018-0.182C352.481,481.124,352.878,480.166,353.598,479.446z"></path><path d="M365.104,495.765c-1.285,0-2.494-0.5-3.402-1.409l-10.811-10.811c-0.909-0.91-1.409-2.118-1.409-3.402c0-1.287,0.501-2.495,1.41-3.404l10.81-10.809c0.908-0.909,2.116-1.41,3.402-1.41c1.285,0,2.494,0.501,3.403,1.41c0.908,0.908,1.408,2.116,1.407,3.403c0,1.286-0.5,2.495-1.408,3.402l-7.406,7.407l7.406,7.407c0.908,0.907,1.408,2.116,1.408,3.403c0,1.286-0.5,2.495-1.408,3.402C367.598,495.265,366.389,495.765,365.104,495.765z M365.104,466.52c-0.751,0-1.457,0.293-1.987,0.824l-10.811,10.81c-0.531,0.531-0.824,1.237-0.824,1.989c0,0.75,0.293,1.457,0.824,1.988l10.81,10.811c1.063,1.063,2.914,1.063,3.977,0c0.53-0.53,0.822-1.236,0.822-1.988c0-0.753-0.292-1.459-0.822-1.989l-8.113-8.114c-0.391-0.391-0.391-1.023,0-1.414l8.113-8.114c0.53-0.53,0.822-1.236,0.822-1.989c0-0.752-0.291-1.458-0.821-1.988C366.562,466.813,365.854,466.52,365.104,466.52z"></path><path fill="#37c3f4" d="M401.885,492.941l10.811-10.811c0.53-0.531,0.823-1.238,0.823-1.988c0-0.752-0.293-1.458-0.824-1.988l-10.81-10.811c-0.531-0.531-1.237-0.824-1.988-0.824s-1.458,0.293-1.989,0.824c-0.53,0.53-0.821,1.236-0.821,1.988c0,0.753,0.292,1.459,0.822,1.989l8.113,8.114c0.391,0.391,0.391,1.023,0,1.414l-8.113,8.114c-0.53,0.53-0.822,1.236-0.822,1.989c0,0.752,0.292,1.458,0.822,1.988C398.971,494.004,400.822,494.004,401.885,492.941z"></path><path d="M399.896,495.765c-1.285,0-2.494-0.5-3.402-1.409c-0.908-0.907-1.408-2.116-1.408-3.402c0-1.287,0.5-2.496,1.408-3.403l7.406-7.407l-7.406-7.407c-0.908-0.907-1.408-2.116-1.408-3.402c-0.001-1.287,0.499-2.495,1.407-3.403c0.909-0.909,2.118-1.41,3.403-1.41c1.286,0,2.494,0.501,3.403,1.41l10.809,10.81c0.909,0.908,1.41,2.116,1.41,3.403c0,1.284-0.5,2.492-1.408,3.402l-10.812,10.811C402.391,495.265,401.182,495.765,399.896,495.765z M399.896,466.52c-0.751,0-1.458,0.293-1.989,0.824c-0.53,0.53-0.821,1.236-0.821,1.988c0,0.753,0.292,1.459,0.822,1.989l8.113,8.114c0.391,0.391,0.391,1.023,0,1.414l-8.113,8.114c-0.53,0.53-0.822,1.236-0.822,1.989c0,0.752,0.292,1.458,0.822,1.988c1.063,1.063,2.914,1.063,3.977,0l10.811-10.811c0.53-0.531,0.823-1.238,0.823-1.988c0-0.752-0.293-1.458-0.824-1.988l-10.81-10.811C401.354,466.813,400.647,466.52,399.896,466.52z"></path><path fill="#37c3f4" d="M385.313,483.936c0-0.553,0.447-1,1-1h8.396c1.551,0,2.813-1.262,2.813-2.813s-1.262-2.813-2.813-2.813H370.29c-1.551,0-2.813,1.262-2.813,2.813s1.262,2.813,2.813,2.813h8.397c0.553,0,1,0.447,1,1v41.733c0,1.55,1.262,2.812,2.813,2.812s2.813-1.262,2.813-2.812V483.936z"></path><path d="M382.5,530.48c-2.653,0-4.813-2.158-4.813-4.812v-40.733h-7.397c-2.653,0-4.813-2.159-4.813-4.813s2.159-4.813,4.813-4.813h24.419c2.653,0,4.813,2.159,4.813,4.813s-2.159,4.813-4.813,4.813h-7.396v40.733C387.313,528.322,385.153,530.48,382.5,530.48z M370.29,477.311c-1.551,0-2.813,1.262-2.813,2.813s1.262,2.813,2.813,2.813h8.397c0.553,0,1,0.447,1,1v41.733c0,1.55,1.262,2.812,2.813,2.812s2.813-1.262,2.813-2.812v-41.733c0-0.553,0.447-1,1-1h8.396c1.551,0,2.813-1.262,2.813-2.813s-1.262-2.813-2.813-2.813H370.29z"></path><path fill="#ef3039" d="M50.3,516.865c0.531-0.531,0.823-1.237,0.823-1.988c0-0.751-0.293-1.457-0.824-1.988c-1.097-1.096-2.881-1.096-3.978,0l-8.114,8.114c-0.391,0.391-1.023,0.391-1.414,0l-8.115-8.113c-0.53-0.53-1.236-0.822-1.989-0.822h0c-0.752,0-1.458,0.291-1.988,0.821c-0.531,0.531-0.824,1.238-0.824,1.989c0,0.751,0.293,1.457,0.824,1.987l10.81,10.811c1.062,1.062,2.914,1.063,3.978,0L50.3,516.865z"></path><path fill="#ef3039" d="M37.481,466.5c-1.551,0-2.813,1.262-2.813,2.813v40.378c0,1.551,1.262,2.813,2.813,2.813c1.551,0,2.812-1.262,2.812-2.813v-40.379C40.293,467.762,39.032,466.5,37.481,466.5z"></path><path d="M37.481,514.503c-2.654,0-4.813-2.159-4.813-4.813v-40.378c0-2.653,2.159-4.813,4.813-4.813c2.653,0,4.812,2.158,4.812,4.812v40.379C42.293,512.344,40.134,514.503,37.481,514.503z M37.481,466.5c-1.551,0-2.813,1.262-2.813,2.813v40.378c0,1.551,1.262,2.813,2.813,2.813c1.551,0,2.812-1.262,2.812-2.813v-40.379C40.293,467.762,39.032,466.5,37.481,466.5z"></path><path fill="#fff" d="M48.944,515.51l-10.811,10.811c-0.721,0.72-1.678,1.117-2.696,1.117c-0.062,0-0.121-0.015-0.183-0.018l0.256,0.256c1.062,1.062,2.914,1.063,3.978,0L50.3,516.865c0.531-0.531,0.823-1.237,0.823-1.988c0-0.751-0.293-1.457-0.824-1.988c-0.078-0.078-0.167-0.138-0.251-0.205c0.002,0.044,0.013,0.087,0.013,0.131C50.06,513.833,49.664,514.791,48.944,515.51z"></path><path d="M37.5,530.5c-1.287,0-2.496-0.501-3.404-1.41l-10.809-10.81c-0.909-0.907-1.41-2.116-1.411-3.402l0,0c0-1.285,0.501-2.494,1.41-3.403c0.908-0.908,2.116-1.407,3.402-1.407h0c1.287,0,2.496,0.5,3.403,1.408l7.407,7.406l7.407-7.407c1.876-1.877,4.93-1.877,6.806,0c0.909,0.908,1.41,2.116,1.41,3.402c0,1.285-0.5,2.494-1.409,3.402L40.903,529.09C39.994,529.999,38.786,530.5,37.5,530.5z M23.877,514.878c0,0.751,0.293,1.457,0.824,1.987l10.81,10.811c1.062,1.062,2.914,1.063,3.978,0L50.3,516.865c0.531-0.531,0.823-1.237,0.823-1.988c0-0.751-0.293-1.457-0.824-1.988c-1.097-1.096-2.881-1.096-3.978,0l-8.114,8.114c-0.391,0.391-1.023,0.391-1.414,0l-8.115-8.113c-0.53-0.53-1.236-0.822-1.989-0.822h0c-0.752,0-1.458,0.291-1.988,0.821C24.17,513.42,23.877,514.127,23.877,514.878z"></path><path fill="#37c3f4" d="M410.671,257.416c1.551,0,2.813-1.262,2.813-2.813v-15.288c0-1.551-1.262-2.813-2.813-2.813h-15.287c-1.551,0-2.813,1.262-2.813,2.813s1.262,2.813,2.813,2.813h11.475c0.553,0,1,0.448,1,1v11.475C407.858,256.154,409.12,257.416,410.671,257.416z"></path><path fill="#37c3f4" d="M401.217,252.774c0.531-0.531,0.824-1.237,0.824-1.989c0-0.751-0.292-1.458-0.823-1.988c-0.531-0.532-1.237-0.824-1.989-0.824s-1.457,0.292-1.987,0.823l-44.9,44.9c-0.531,0.531-0.824,1.237-0.824,1.988s0.292,1.457,0.823,1.986c1.063,1.066,2.916,1.064,3.977,0.002L401.217,252.774z"></path><path d="M354.329,300.497c-1.286,0-2.495-0.501-3.404-1.411c-0.907-0.907-1.408-2.115-1.408-3.401s0.501-2.494,1.41-3.403l44.899-44.899c0.907-0.909,2.116-1.41,3.402-1.41s2.495,0.501,3.403,1.41c0.909,0.909,1.409,2.117,1.409,3.402s-0.501,2.494-1.41,3.403l-44.899,44.898C356.823,299.996,355.615,300.497,354.329,300.497z M399.229,247.973c-0.752,0-1.457,0.292-1.987,0.823l-44.9,44.9c-0.531,0.531-0.824,1.237-0.824,1.988s0.292,1.457,0.823,1.986c1.063,1.066,2.916,1.064,3.977,0.002l44.9-44.899c0.531-0.531,0.824-1.237,0.824-1.989c0-0.751-0.292-1.458-0.823-1.988C400.687,248.265,399.98,247.973,399.229,247.973z"></path><path fill="#fff" d="M410.671,236.503h-15.287c-1.551,0-2.813,1.262-2.813,2.813c0,0.007,0.002,0.014,0.002,0.021c0.694-0.774,1.689-1.271,2.811-1.271h15.287c1.118,0,2.114,0.492,2.812,1.26v-0.01C413.483,237.765,412.222,236.503,410.671,236.503z"></path><path d="M410.671,259.416c-2.653,0-4.813-2.159-4.813-4.813v-10.475h-10.475c-2.653,0-4.813-2.159-4.813-4.813s2.159-4.813,4.813-4.813h15.287c2.653,0,4.813,2.159,4.813,4.813v15.288C415.483,257.257,413.324,259.416,410.671,259.416z M395.384,236.503c-1.551,0-2.813,1.262-2.813,2.813s1.262,2.813,2.813,2.813h11.475c0.553,0,1,0.448,1,1v11.475c0,1.551,1.262,2.813,2.813,2.813s2.813-1.262,2.813-2.813v-15.288c0-1.551-1.262-2.813-2.813-2.813H395.384z"></path><g><path fill="#37c3f4" d="M139.603,351.517h-15.288c-1.551,0-2.813,1.262-2.813,2.813v15.287c0,1.551,1.262,2.813,2.813,2.813s2.813-1.262,2.813-2.813v-11.475c0-0.553,0.448-1,1-1h11.475c1.551,0,2.813-1.262,2.813-2.813S141.154,351.517,139.603,351.517z"></path><path fill="#37c3f4" d="M182.673,408.684l-44.899-44.9c-0.531-0.531-1.237-0.824-1.989-0.824c-0.751,0-1.458,0.292-1.988,0.823c-0.532,0.531-0.824,1.237-0.824,1.989s0.292,1.457,0.823,1.987l44.9,44.9c1.063,1.063,2.916,1.063,3.975,0.001c0.533-0.531,0.826-1.238,0.826-1.989S183.205,409.214,182.673,408.684z"></path><path d="M180.685,415.483c-1.286,0-2.495-0.501-3.403-1.41l-44.899-44.899c-0.909-0.907-1.41-2.116-1.41-3.402s0.501-2.495,1.41-3.403c0.909-0.909,2.117-1.409,3.402-1.409s2.494,0.501,3.403,1.41l44.898,44.899c0.909,0.908,1.41,2.116,1.41,3.402s-0.501,2.495-1.412,3.404C183.179,414.982,181.971,415.483,180.685,415.483z M135.785,362.959c-0.751,0-1.458,0.292-1.988,0.823c-0.532,0.531-0.824,1.237-0.824,1.989s0.292,1.457,0.823,1.987l44.9,44.9c1.063,1.063,2.916,1.063,3.975,0.001c0.533-0.531,0.826-1.238,0.826-1.989s-0.292-1.457-0.824-1.987l-44.899-44.9C137.243,363.252,136.537,362.959,135.785,362.959z"></path><path fill="#fff" d="M124.315,353.853h15.288c1.07,0,2.027,0.452,2.717,1.167c0.057-0.222,0.096-0.451,0.096-0.691c0-1.551-1.262-2.813-2.813-2.813h-15.288c-1.551,0-2.813,1.262-2.813,2.813v0.784C122.201,354.345,123.198,353.853,124.315,353.853z"></path><path d="M124.315,374.429c-2.654,0-4.813-2.159-4.813-4.813v-15.287c0-2.653,2.159-4.813,4.813-4.813h15.288c2.654,0,4.813,2.159,4.813,4.813s-2.159,4.813-4.813,4.813h-10.475v10.475C129.128,372.27,126.969,374.429,124.315,374.429z M124.315,351.517c-1.551,0-2.813,1.262-2.813,2.813v15.287c0,1.551,1.262,2.813,2.813,2.813s2.813-1.262,2.813-2.813v-11.475c0-0.553,0.448-1,1-1h11.475c1.551,0,2.813-1.262,2.813-2.813s-1.262-2.813-2.813-2.813H124.315z"></path></g><g><path fill="#ef3039" d="M239.329,392.585c-1.551,0-2.813,1.262-2.813,2.813v15.287c0,1.551,1.262,2.813,2.813,2.813h15.287c1.551,0,2.813-1.262,2.813-2.813s-1.262-2.813-2.813-2.813h-11.475c-0.552,0-1-0.447-1-1v-11.475C242.142,393.847,240.88,392.585,239.329,392.585z"></path><path fill="#ef3039" d="M295.671,351.503c-0.751,0-1.457,0.293-1.987,0.824l-44.9,44.899c-0.532,0.531-0.824,1.237-0.824,1.988s0.292,1.457,0.823,1.988c1.063,1.063,2.917,1.063,3.977,0.001l44.9-44.9c0.531-0.531,0.824-1.237,0.824-1.988s-0.292-1.457-0.823-1.986C297.129,351.796,296.422,351.503,295.671,351.503z"></path><path d="M250.771,404.027c-1.287,0-2.496-0.501-3.404-1.41c-0.908-0.908-1.409-2.117-1.409-3.402c0-1.286,0.501-2.494,1.411-3.403l44.899-44.898c0.908-0.909,2.116-1.41,3.402-1.41s2.495,0.501,3.404,1.411c0.907,0.907,1.408,2.115,1.408,3.401s-0.501,2.494-1.41,3.403l-44.899,44.899C253.267,403.526,252.058,404.027,250.771,404.027z M295.671,351.503c-0.751,0-1.457,0.293-1.987,0.824l-44.9,44.899c-0.532,0.531-0.824,1.237-0.824,1.988s0.292,1.457,0.823,1.988c1.063,1.063,2.917,1.063,3.977,0.001l44.9-44.9c0.531-0.531,0.824-1.237,0.824-1.988s-0.292-1.457-0.823-1.986C297.129,351.796,296.422,351.503,295.671,351.503z"></path><path fill="#fff" d="M239.329,413.497h15.287c1.551,0,2.813-1.262,2.813-2.813c0-0.044-0.011-0.086-0.013-0.13c-0.695,0.766-1.686,1.255-2.8,1.255h-15.287c-1.118,0-2.114-0.492-2.812-1.26v0.135C236.517,412.235,237.778,413.497,239.329,413.497z"></path><path d="M254.616,415.497h-15.287c-2.654,0-4.813-2.159-4.813-4.813v-15.287c0-2.653,2.159-4.813,4.813-4.813s4.813,2.159,4.813,4.813v10.475h10.475c2.654,0,4.813,2.159,4.813,4.813S257.27,415.497,254.616,415.497z M239.329,392.585c-1.551,0-2.813,1.262-2.813,2.813v15.287c0,1.551,1.262,2.813,2.813,2.813h15.287c1.551,0,2.813-1.262,2.813-2.813s-1.262-2.813-2.813-2.813h-11.475c-0.552,0-1-0.447-1-1v-11.475C242.142,393.847,240.88,392.585,239.329,392.585z"></path></g><g><path fill="#ef3039" d="M525.685,277.571c-1.551,0-2.813,1.262-2.813,2.813v11.475c0,0.553-0.447,1-1,1h-11.475c-1.551,0-2.813,1.262-2.813,2.813s1.262,2.813,2.813,2.813h15.287c1.551,0,2.813-1.262,2.813-2.813v-15.287C528.497,278.833,527.235,277.571,525.685,277.571z"></path><path fill="#ef3039" d="M471.304,237.341c-0.531-0.532-1.237-0.824-1.988-0.824s-1.457,0.292-1.986,0.823c-0.533,0.532-0.826,1.238-0.826,1.99s0.293,1.457,0.824,1.988l44.899,44.9c1.063,1.063,2.914,1.063,3.977,0.001c0.531-0.531,0.824-1.237,0.824-1.989s-0.292-1.458-0.823-1.987L471.304,237.341z"></path><path d="M514.215,289.041c-1.286,0-2.494-0.501-3.403-1.41l-44.898-44.899c-0.909-0.908-1.41-2.116-1.41-3.402s0.501-2.495,1.411-3.404c0.907-0.908,2.115-1.409,3.401-1.409s2.494,0.501,3.403,1.411l44.899,44.899c0.908,0.907,1.409,2.115,1.409,3.402s-0.501,2.495-1.41,3.404C516.709,288.541,515.5,289.041,514.215,289.041z M469.315,236.517c-0.751,0-1.457,0.292-1.986,0.823c-0.533,0.532-0.826,1.238-0.826,1.99s0.293,1.457,0.824,1.988l44.899,44.9c1.063,1.063,2.914,1.063,3.977,0.001c0.531-0.531,0.824-1.237,0.824-1.989s-0.292-1.458-0.823-1.987l-44.9-44.9C470.772,236.809,470.066,236.517,469.315,236.517z"></path><path d="M525.685,300.483h-15.287c-2.653,0-4.813-2.159-4.813-4.813s2.159-4.813,4.813-4.813h10.475v-10.475c0-2.653,2.159-4.813,4.813-4.813s4.813,2.159,4.813,4.813v15.287C530.497,298.324,528.338,300.483,525.685,300.483z M510.397,292.858c-1.551,0-2.813,1.262-2.813,2.813s1.262,2.813,2.813,2.813h15.287c1.551,0,2.813-1.262,2.813-2.813v-15.287c0-1.551-1.262-2.813-2.813-2.813s-2.813,1.262-2.813,2.813v11.475c0,0.553-0.447,1-1,1H510.397z"></path><path fill="#fff" d="M510.397,298.483h15.287c1.53,0,2.774-1.23,2.807-2.753c-0.698,0.765-1.692,1.253-2.806,1.253h-15.288c-1.12,0-2.114-0.495-2.808-1.268C507.614,297.245,508.862,298.483,510.397,298.483z"></path></g><g><path fill="#41d88d" d="M143.213,122.304c-1.063-1.062-2.915-1.062-3.976,0l-10.811,10.81c-0.531,0.532-0.824,1.238-0.824,1.989s0.293,1.457,0.824,1.989c1.062,1.062,2.913,1.063,3.977,0l8.114-8.114c0.195-0.195,0.451-0.293,0.707-0.293s0.512,0.098,0.707,0.293l8.115,8.114c1.062,1.062,2.914,1.063,3.978-0.001c1.095-1.096,1.095-2.88-0.001-3.977L143.213,122.304z"></path><path fill="#41d88d" d="M141.244,136.397c-1.551,0-2.813,1.262-2.813,2.813v40.572c0,1.551,1.262,2.812,2.813,2.812s2.812-1.261,2.812-2.812V139.21C144.056,137.659,142.795,136.397,141.244,136.397z"></path><path d="M141.244,184.594c-2.654,0-4.813-2.159-4.813-4.812V139.21c0-2.654,2.159-4.813,4.813-4.813c2.653,0,4.812,2.159,4.812,4.813v40.572C146.056,182.436,143.897,184.594,141.244,184.594z M141.244,136.397c-1.551,0-2.813,1.262-2.813,2.813v40.572c0,1.551,1.262,2.812,2.813,2.812s2.812-1.261,2.812-2.812V139.21C144.056,137.659,142.795,136.397,141.244,136.397z"></path><path fill="#fff" d="M154.024,137.091c1.095-1.096,1.095-2.88-0.001-3.977l-10.81-10.811c-1.063-1.062-2.915-1.062-3.976,0l-0.281,0.281c0.061-0.003,0.12-0.018,0.182-0.018c1.018,0,1.975,0.396,2.695,1.116l10.811,10.811c0.775,0.775,1.136,1.804,1.102,2.821C153.84,137.244,153.938,137.177,154.024,137.091z"></path><path d="M152.035,139.916c-1.286,0-2.494-0.5-3.403-1.41l-7.407-7.407l-7.407,7.407c-0.91,0.909-2.118,1.41-3.403,1.41c-1.286,0-2.494-0.5-3.403-1.41s-1.41-2.118-1.41-3.403s0.501-2.494,1.41-3.403l10.81-10.81c0.908-0.909,2.117-1.41,3.402-1.41c1.285,0,2.493,0.5,3.402,1.409l10.811,10.811c1.875,1.876,1.875,4.929,0.001,6.805C154.528,139.416,153.319,139.916,152.035,139.916z M141.225,128.685c0.256,0,0.512,0.098,0.707,0.293l8.115,8.114c1.062,1.062,2.914,1.063,3.978-0.001c1.095-1.096,1.095-2.88-0.001-3.977l-10.81-10.811c-1.063-1.062-2.915-1.062-3.976,0l-10.811,10.81c-0.531,0.532-0.824,1.238-0.824,1.989s0.293,1.457,0.824,1.989c1.062,1.062,2.913,1.063,3.977,0l8.114-8.114C140.713,128.783,140.969,128.685,141.225,128.685z"></path><path fill="#41d88d" d="M163.797,122.406c-1.551,0-2.813,1.261-2.813,2.812v40.572c0,1.551,1.262,2.813,2.813,2.813s2.812-1.262,2.812-2.813v-40.572C166.609,123.667,165.348,122.406,163.797,122.406z"></path><path d="M163.797,170.603c-2.654,0-4.813-2.159-4.813-4.813v-40.572c0-2.653,2.159-4.812,4.813-4.812c2.653,0,4.812,2.159,4.812,4.812v40.572C168.609,168.444,166.45,170.603,163.797,170.603z M163.797,122.406c-1.551,0-2.813,1.261-2.813,2.812v40.572c0,1.551,1.262,2.813,2.813,2.813s2.812-1.262,2.812-2.813v-40.572C166.609,123.667,165.348,122.406,163.797,122.406z"></path><path fill="#41d88d" d="M172.6,167.908l-8.115,8.114c-0.391,0.391-1.023,0.391-1.414,0l-8.114-8.114c-0.532-0.531-1.238-0.824-1.989-0.824c-0.751,0-1.457,0.292-1.988,0.824c-0.532,0.532-0.825,1.238-0.825,1.989s0.293,1.457,0.824,1.989l10.81,10.81c1.062,1.062,2.914,1.063,3.977,0l10.811-10.81c1.096-1.097,1.096-2.881,0-3.977C175.513,166.846,173.661,166.845,172.6,167.908z"></path><path d="M163.777,185.519c-1.286,0-2.494-0.5-3.403-1.41l-10.81-10.81c-0.909-0.909-1.41-2.118-1.41-3.403s0.501-2.494,1.41-3.403c0.908-0.909,2.117-1.41,3.402-1.41c1.285,0,2.493,0.5,3.403,1.409l7.407,7.408l7.408-7.407c0.908-0.909,2.117-1.41,3.402-1.41c1.285,0,2.493,0.5,3.403,1.41c1.875,1.876,1.875,4.929,0,6.806L167.18,184.11C166.271,185.019,165.062,185.519,163.777,185.519z M152.967,167.084c-0.751,0-1.457,0.292-1.988,0.824c-0.532,0.532-0.825,1.238-0.825,1.989s0.293,1.457,0.824,1.989l10.81,10.81c1.062,1.062,2.914,1.063,3.977,0l10.811-10.81c1.096-1.097,1.096-2.881,0-3.977c-1.063-1.063-2.915-1.063-3.977,0l-8.115,8.114c-0.391,0.391-1.023,0.391-1.414,0l-8.114-8.114C154.424,167.376,153.718,167.084,152.967,167.084z"></path></g><g><path fill="#f2bf1c" d="M286.886,176.573l10.81-10.81c0.531-0.531,0.824-1.237,0.824-1.988c0-0.751-0.292-1.457-0.823-1.988l-10.811-10.811c-0.549-0.548-1.269-0.822-1.989-0.822s-1.44,0.274-1.988,0.822c-0.531,0.531-0.824,1.238-0.824,1.989c0,0.751,0.293,1.457,0.824,1.988l8.114,8.115c0.391,0.391,0.391,1.023,0,1.414l-8.114,8.114c-0.531,0.532-0.824,1.238-0.824,1.989c0,0.751,0.293,1.457,0.824,1.988C283.971,177.638,285.821,177.637,286.886,176.573z"></path><path fill="#f2bf1c" d="M280.79,160.944h-40.572c-1.551,0-2.812,1.261-2.812,2.812s1.261,2.813,2.812,2.813h40.572c1.551,0,2.813-1.262,2.813-2.813S282.341,160.944,280.79,160.944z"></path><path d="M280.79,168.568h-40.572c-2.653,0-4.812-2.159-4.812-4.813c0-2.653,2.159-4.812,4.812-4.812h40.572c2.653,0,4.813,2.159,4.813,4.812C285.603,166.41,283.443,168.568,280.79,168.568z M240.218,160.944c-1.551,0-2.812,1.261-2.812,2.812s1.261,2.813,2.812,2.813h40.572c1.551,0,2.813-1.262,2.813-2.813s-1.262-2.812-2.813-2.812H240.218z"></path><path fill="#fff" d="M286.886,176.573l10.81-10.81c0.531-0.531,0.824-1.237,0.824-1.988c0-0.751-0.292-1.457-0.823-1.988l-0.158-0.158c0.003,0.062,0.018,0.121,0.018,0.183c0,1.018-0.396,1.976-1.117,2.695l-10.81,10.81c-0.72,0.72-1.677,1.117-2.696,1.117c-0.052,0-0.101-0.014-0.153-0.016c0.044,0.051,0.079,0.107,0.127,0.154C283.971,177.638,285.821,177.637,286.886,176.573z"></path><path d="M284.896,179.398c-1.285,0-2.494-0.501-3.402-1.41c-0.909-0.908-1.41-2.116-1.41-3.402c0-1.285,0.501-2.494,1.41-3.403l7.407-7.407l-7.407-7.408c-0.909-0.908-1.41-2.116-1.41-3.402c0-1.285,0.501-2.493,1.41-3.403c1.875-1.874,4.929-1.875,6.806,0l10.811,10.811c0.909,0.909,1.409,2.118,1.409,3.402c0,1.286-0.501,2.495-1.41,3.403l-10.81,10.81C287.39,178.897,286.182,179.398,284.896,179.398z M284.896,150.155c-0.721,0-1.44,0.274-1.988,0.822c-0.531,0.531-0.824,1.238-0.824,1.989c0,0.751,0.293,1.457,0.824,1.988l8.114,8.115c0.391,0.391,0.391,1.023,0,1.414l-8.114,8.114c-0.531,0.532-0.824,1.238-0.824,1.989c0,0.751,0.293,1.457,0.824,1.988c1.063,1.064,2.913,1.063,3.978,0l10.81-10.81c0.531-0.531,0.824-1.237,0.824-1.988c0-0.751-0.292-1.457-0.823-1.988l-10.811-10.811C286.337,150.429,285.617,150.155,284.896,150.155z"></path><path fill="#f28c1c" d="M294.782,138.391H254.21c-1.551,0-2.813,1.261-2.813,2.812s1.262,2.813,2.813,2.813h40.572c1.55,0,2.812-1.262,2.812-2.813S296.332,138.391,294.782,138.391z"></path><path d="M294.782,146.016H254.21c-2.654,0-4.813-2.159-4.813-4.813c0-2.653,2.159-4.812,4.813-4.812h40.572c2.653,0,4.812,2.159,4.812,4.812C299.594,143.857,297.436,146.016,294.782,146.016z M254.21,138.391c-1.551,0-2.813,1.261-2.813,2.812s1.262,2.813,2.813,2.813h40.572c1.55,0,2.812-1.262,2.812-2.813s-1.262-2.812-2.812-2.812H254.21z"></path><path fill="#f28c1c" d="M252.091,128.423c-0.547-0.547-1.268-0.821-1.987-0.821c-0.721,0-1.441,0.274-1.989,0.822l-10.811,10.81c-0.531,0.531-0.823,1.237-0.823,1.988c0,0.751,0.292,1.457,0.824,1.988l10.81,10.811c1.063,1.063,2.914,1.063,3.978,0c0.531-0.531,0.824-1.237,0.824-1.988c0-0.751-0.292-1.457-0.824-1.989l-8.114-8.114c-0.391-0.391-0.391-1.023,0-1.414l8.114-8.115c0.531-0.531,0.824-1.237,0.824-1.988C252.916,129.662,252.623,128.955,252.091,128.423z"></path><path d="M250.104,156.845c-1.285,0-2.494-0.501-3.403-1.41l-10.81-10.81c-0.909-0.908-1.41-2.117-1.41-3.402c0-1.285,0.5-2.493,1.409-3.402l10.811-10.811c1.877-1.875,4.929-1.875,6.805-0.001c0.91,0.911,1.41,2.119,1.41,3.404c0,1.286-0.5,2.494-1.41,3.403l-7.407,7.407l7.407,7.407c0.909,0.91,1.41,2.118,1.41,3.403c0,1.286-0.5,2.494-1.41,3.403S251.389,156.845,250.104,156.845z M250.104,127.602c-0.721,0-1.441,0.274-1.989,0.822l-10.811,10.81c-0.531,0.531-0.823,1.237-0.823,1.988c0,0.751,0.292,1.457,0.824,1.988l10.81,10.811c1.063,1.063,2.914,1.063,3.978,0c0.531-0.531,0.824-1.237,0.824-1.988c0-0.751-0.292-1.457-0.824-1.989l-8.114-8.114c-0.391-0.391-0.391-1.023,0-1.414l8.114-8.115c0.531-0.531,0.824-1.237,0.824-1.988c0-0.751-0.293-1.458-0.825-1.989C251.544,127.876,250.824,127.602,250.104,127.602z"></path></g><g><path fill="#37c3f4" d="M49.508,132.464L39.34,122.295c-0.976-0.976-2.681-0.975-3.655,0l-10.168,10.168c-0.489,0.489-0.758,1.138-0.758,1.829s0.269,1.34,0.758,1.829c0.977,0.977,2.679,0.977,3.657,0l7.632-7.631c0.195-0.195,0.451-0.293,0.707-0.293s0.512,0.098,0.707,0.293l7.632,7.632c0.976,0.977,2.678,0.978,3.658-0.001C50.516,135.112,50.516,133.472,49.508,132.464z"></path><path fill="#37c3f4" d="M54.309,152.519c0-1.426-1.16-2.586-2.586-2.586H41.105c-0.265,0-0.52-0.105-0.707-0.293s-0.312-0.461-0.312-0.726v-10.618c0-1.426-1.16-2.586-2.586-2.586s-2.586,1.16-2.586,2.586v10.618c0,0.265-0.105,0.52-0.293,0.707s-0.461,0.312-0.726,0.312H23.277c-1.426,0-2.586,1.16-2.586,2.586s1.16,2.586,2.586,2.586h10.618c0.27,0,0.528,0.109,0.716,0.302c0.182,0.187,0.303,0.457,0.303,0.718v10.618c0,1.426,1.16,2.586,2.586,2.586s2.586-1.16,2.586-2.586v-10.618c0-0.261,0.102-0.511,0.284-0.698l0.019-0.02c0.188-0.193,0.446-0.302,0.716-0.302h10.618C53.149,155.105,54.309,153.945,54.309,152.519z"></path><path d="M37.5,171.328c-2.529,0-4.586-2.057-4.586-4.586v-9.637h-9.637c-2.529,0-4.586-2.057-4.586-4.586s2.057-4.586,4.586-4.586h9.637v-9.637c0-2.529,2.057-4.586,4.586-4.586s4.586,2.057,4.586,4.586v9.637h9.637c2.529,0,4.586,2.057,4.586,4.586s-2.057,4.586-4.586,4.586h-9.637v9.637C42.086,169.271,40.029,171.328,37.5,171.328z M23.277,149.933c-1.426,0-2.586,1.16-2.586,2.586s1.16,2.586,2.586,2.586h10.618c0.27,0,0.528,0.109,0.716,0.302c0.182,0.187,0.303,0.457,0.303,0.718v10.618c0,1.426,1.16,2.586,2.586,2.586s2.586-1.16,2.586-2.586v-10.618c0-0.261,0.102-0.511,0.284-0.698l0.019-0.02c0.188-0.193,0.446-0.302,0.716-0.302h10.618c1.426,0,2.586-1.16,2.586-2.586s-1.16-2.586-2.586-2.586H41.105c-0.265,0-0.52-0.105-0.707-0.293s-0.312-0.461-0.312-0.726v-10.618c0-1.426-1.16-2.586-2.586-2.586s-2.586,1.16-2.586,2.586v10.618c0,0.265-0.105,0.52-0.293,0.707s-0.461,0.312-0.726,0.312H23.277z"></path><path fill="#37c3f4" d="M21.15,160.875l-7.631-7.632c-0.391-0.391-0.391-1.023,0-1.414l7.631-7.632c0.489-0.489,0.758-1.138,0.758-1.829s-0.269-1.34-0.758-1.829c-0.488-0.488-1.137-0.757-1.828-0.757c-0.69,0-1.34,0.269-1.829,0.758L7.326,150.708c-1.007,1.008-1.007,2.648,0,3.656l10.167,10.168c0.979,0.978,2.681,0.975,3.656,0.001c0.49-0.489,0.759-1.139,0.759-1.829S21.639,161.364,21.15,160.875z"></path><path d="M19.322,167.29c-1.224,0-2.375-0.477-3.243-1.343L5.912,155.778c-1.788-1.788-1.788-4.696,0-6.484l10.168-10.168c0.867-0.866,2.019-1.343,3.243-1.343c1.225,0,2.377,0.477,3.243,1.343c0.866,0.866,1.343,2.018,1.343,3.243c0,1.225-0.478,2.376-1.344,3.243l-6.924,6.924l6.924,6.925c0.867,0.866,1.344,2.018,1.344,3.243c0,1.225-0.478,2.376-1.344,3.243C21.699,166.813,20.548,167.29,19.322,167.29z M19.322,139.783c-0.69,0-1.34,0.269-1.829,0.758L7.326,150.708c-1.007,1.008-1.007,2.648,0,3.656l10.167,10.168c0.979,0.978,2.681,0.975,3.656,0.001c0.49-0.489,0.759-1.139,0.759-1.829s-0.269-1.34-0.758-1.829l-7.631-7.632c-0.391-0.391-0.391-1.023,0-1.414l7.631-7.632c0.489-0.489,0.758-1.138,0.758-1.829s-0.269-1.34-0.758-1.829C20.662,140.052,20.013,139.783,19.322,139.783z"></path><path fill="#37c3f4" d="M67.674,154.364c1.008-1.008,1.008-2.648,0-3.657L57.506,140.54c-0.488-0.488-1.138-0.757-1.828-0.757c-0.691,0-1.34,0.269-1.828,0.757c-0.489,0.489-0.758,1.138-0.758,1.829s0.269,1.339,0.758,1.828l7.631,7.633c0.391,0.391,0.391,1.023,0,1.414l-7.631,7.632c-0.489,0.489-0.758,1.138-0.758,1.829s0.269,1.339,0.757,1.827c0.978,0.979,2.679,0.98,3.657,0L67.674,154.364z"></path><path d="M55.678,167.29c-1.226,0-2.377-0.478-3.243-1.345c-0.866-0.865-1.343-2.016-1.343-3.241c0-1.225,0.477-2.376,1.344-3.243l6.924-6.925l-6.924-6.925c-0.867-0.866-1.344-2.017-1.344-3.242c0-1.225,0.477-2.376,1.344-3.243c0.865-0.866,2.017-1.343,3.242-1.343c1.224,0,2.375,0.477,3.242,1.342l10.168,10.168c1.788,1.788,1.788,4.697,0,6.485L58.92,165.946C58.053,166.813,56.902,167.29,55.678,167.29z M55.678,139.783c-0.691,0-1.34,0.269-1.828,0.757c-0.489,0.489-0.758,1.138-0.758,1.829s0.269,1.339,0.758,1.828l7.631,7.633c0.391,0.391,0.391,1.023,0,1.414l-7.631,7.632c-0.489,0.489-0.758,1.138-0.758,1.829s0.269,1.339,0.757,1.827c0.978,0.979,2.679,0.98,3.657,0l10.167-10.167c1.008-1.008,1.008-2.648,0-3.657L57.506,140.54C57.018,140.052,56.368,139.783,55.678,139.783z"></path><path fill="#37c3f4" d="M49.508,172.536c1.008-1.008,1.008-2.648,0-3.657c-0.979-0.977-2.682-0.976-3.656,0l-7.633,7.632c-0.391,0.391-1.023,0.391-1.414,0l-7.633-7.632c-0.488-0.488-1.138-0.757-1.828-0.757s-1.34,0.269-1.828,0.757c-0.489,0.489-0.758,1.138-0.758,1.829s0.269,1.339,0.758,1.828l10.168,10.168c0.975,0.976,2.68,0.977,3.656,0L49.508,172.536z"></path><path d="M37.512,185.461c-1.226,0-2.377-0.477-3.243-1.344L24.102,173.95c-0.867-0.866-1.344-2.017-1.344-3.242c0-1.225,0.477-2.376,1.344-3.243c0.866-0.866,2.018-1.343,3.242-1.343c1.224,0,2.375,0.477,3.242,1.342l6.926,6.926l6.925-6.925c0.865-0.866,2.017-1.343,3.242-1.343c1.224,0,2.375,0.477,3.242,1.342c1.789,1.789,1.789,4.698,0.001,6.486l-10.168,10.168C39.888,184.984,38.737,185.461,37.512,185.461z M27.344,168.122c-0.69,0-1.34,0.269-1.828,0.757c-0.489,0.489-0.758,1.138-0.758,1.829s0.269,1.339,0.758,1.828l10.168,10.168c0.975,0.976,2.68,0.977,3.656,0l10.168-10.168c1.008-1.008,1.008-2.648,0-3.657c-0.979-0.977-2.682-0.976-3.656,0l-7.633,7.632c-0.391,0.391-1.023,0.391-1.414,0l-7.633-7.632C28.684,168.391,28.035,168.122,27.344,168.122z"></path><path fill="#fff" d="M49.509,136.12c1.007-1.007,1.007-2.648-0.001-3.656L39.34,122.295c-0.976-0.976-2.681-0.975-3.655,0l-0.161,0.161c0.047-0.002,0.091-0.014,0.139-0.014c0.958,0,1.858,0.373,2.535,1.05l10.168,10.169c0.701,0.701,1.042,1.622,1.039,2.543C49.438,136.174,49.477,136.152,49.509,136.12z"></path><path d="M47.68,138.878c-1.225,0-2.377-0.477-3.243-1.343l-6.925-6.925l-6.925,6.925c-0.867,0.866-2.019,1.343-3.243,1.343c-1.225,0-2.376-0.477-3.242-1.343c-0.867-0.866-1.344-2.018-1.344-3.243c0-1.225,0.478-2.376,1.344-3.243l10.167-10.167c0.865-0.866,2.016-1.343,3.242-1.343c1.225,0,2.376,0.477,3.242,1.343l10.168,10.168c1.788,1.788,1.788,4.696,0,6.484C50.055,138.401,48.903,138.878,47.68,138.878z M37.512,128.196c0.256,0,0.512,0.098,0.707,0.293l7.632,7.632c0.976,0.977,2.678,0.978,3.658-0.001c1.007-1.007,1.007-2.648-0.001-3.656L39.34,122.295c-0.976-0.976-2.681-0.975-3.655,0l-10.168,10.168c-0.489,0.489-0.758,1.138-0.758,1.829s0.269,1.34,0.758,1.829c0.977,0.977,2.679,0.977,3.657,0l7.632-7.631C37,128.293,37.256,128.196,37.512,128.196z"></path></g><g><path fill="#f28c1c" d="M146.337,473.099c-1.551,0-2.813,1.262-2.813,2.813v11.476c0,0.553-0.448,1-1,1h-11.476c-1.551,0-2.813,1.262-2.813,2.813s1.262,2.813,2.813,2.813h15.288c1.551,0,2.813-1.262,2.813-2.813v-15.288C149.149,474.36,147.888,473.099,146.337,473.099z"></path><path fill="#f2bf1c" d="M158.663,473.099c-1.551,0-2.813,1.262-2.813,2.813v15.288c0,1.551,1.262,2.813,2.813,2.813h15.288c1.551,0,2.813-1.262,2.813-2.813s-1.262-2.813-2.813-2.813h-11.476c-0.552,0-1-0.447-1-1v-11.476C161.476,474.36,160.214,473.099,158.663,473.099z"></path><path fill="#f28c1c" d="M171.002,511.941c-1.056-1.055-2.897-1.063-3.961-0.014c-0.494,0.486-0.768,1.169-0.771,1.922c-0.003,0.832,0.322,1.637,0.893,2.207l11.591,11.592c0.335,0.336,0.674,0.563,1.009,0.678c1.147,0.393,2.341,0.091,3.115-0.784c0.915-1.034,0.785-2.939-0.273-3.997L171.002,511.941z"></path><path d="M180.776,530.499c-0.548,0-1.107-0.092-1.659-0.28c0,0,0,0-0.001,0c-0.626-0.215-1.224-0.604-1.776-1.157l-11.59-11.591c-0.945-0.944-1.484-2.267-1.479-3.629c0.005-1.29,0.49-2.476,1.367-3.34c0.906-0.892,2.105-1.383,3.377-1.383c1.285,0,2.493,0.5,3.401,1.407l11.604,11.604c1.816,1.816,1.98,4.901,0.357,6.735C183.437,529.931,182.141,530.499,180.776,530.499z M179.764,528.326c1.147,0.393,2.341,0.091,3.115-0.784c0.915-1.034,0.785-2.939-0.273-3.997l-11.604-11.604c-1.056-1.055-2.897-1.063-3.961-0.014c-0.494,0.486-0.768,1.169-0.771,1.922c-0.003,0.832,0.322,1.637,0.893,2.207l11.591,11.592C179.09,527.984,179.429,528.212,179.764,528.326L179.764,528.326z"></path><path fill="#f28c1c" d="M174.089,500.851h-15.288c-1.551,0-2.813,1.262-2.813,2.813v15.288c0,1.551,1.262,2.813,2.813,2.813s2.813-1.262,2.813-2.813v-11.476c0-0.553,0.448-1,1-1h11.475c1.551,0,2.813-1.262,2.813-2.813S175.64,500.851,174.089,500.851z"></path><path d="M158.801,523.764c-2.654,0-4.813-2.159-4.813-4.813v-15.288c0-2.653,2.159-4.813,4.813-4.813h15.288c2.654,0,4.813,2.159,4.813,4.813s-2.159,4.813-4.813,4.813h-10.475v10.476C163.614,521.604,161.455,523.764,158.801,523.764z M158.801,500.851c-1.551,0-2.813,1.262-2.813,2.813v15.288c0,1.551,1.262,2.813,2.813,2.813s2.813-1.262,2.813-2.813v-11.476c0-0.553,0.448-1,1-1h11.475c1.551,0,2.813-1.262,2.813-2.813s-1.262-2.813-2.813-2.813H158.801z"></path><path fill="#f28c1c" d="M126.455,467.394c-1.077-1.075-2.944-1.202-3.998-0.272c-0.875,0.773-1.175,1.968-0.784,3.116c0.114,0.333,0.342,0.672,0.677,1.008l11.592,11.592c0.571,0.57,1.388,0.856,2.209,0.893c0.752-0.003,1.435-0.277,1.921-0.771c0.521-0.529,0.808-1.23,0.808-1.974c0-0.75-0.292-1.456-0.823-1.987L126.455,467.394z"></path><path d="M136.139,485.729c-1.355,0-2.669-0.538-3.61-1.479l-11.592-11.592c-0.554-0.554-0.942-1.15-1.156-1.775c0,0,0,0,0-0.001c-0.657-1.927-0.139-3.942,1.352-5.26c1.836-1.622,4.919-1.459,6.736,0.356l11.604,11.604c0.908,0.909,1.408,2.117,1.408,3.401c0,1.271-0.491,2.471-1.383,3.377c-0.863,0.876-2.048,1.361-3.338,1.367C136.153,485.729,136.146,485.729,136.139,485.729z M121.674,470.237c0.114,0.333,0.342,0.672,0.677,1.008l11.592,11.592c0.571,0.57,1.388,0.856,2.209,0.893c0.752-0.003,1.435-0.277,1.921-0.771c0.521-0.529,0.808-1.23,0.808-1.974c0-0.75-0.292-1.456-0.823-1.987l-11.603-11.604c-1.077-1.075-2.944-1.202-3.998-0.272C121.583,467.895,121.283,469.089,121.674,470.237L121.674,470.237z"></path><path fill="#fff" d="M131.049,494.012h15.288c1.549,0,2.809-1.259,2.812-2.807c-0.698,0.768-1.695,1.26-2.812,1.26h-15.288c-1.122,0-2.118-0.497-2.812-1.273c0,0.003-0.001,0.005-0.001,0.007C128.236,492.75,129.498,494.012,131.049,494.012z"></path><path d="M146.337,496.012h-15.288c-2.654,0-4.813-2.159-4.813-4.813s2.159-4.813,4.813-4.813h10.476v-10.476c0-2.653,2.159-4.813,4.813-4.813s4.813,2.159,4.813,4.813v15.288C151.149,493.853,148.991,496.012,146.337,496.012z M131.049,488.387c-1.551,0-2.813,1.262-2.813,2.813s1.262,2.813,2.813,2.813h15.288c1.551,0,2.813-1.262,2.813-2.813v-15.288c0-1.551-1.262-2.813-2.813-2.813s-2.813,1.262-2.813,2.813v11.476c0,0.553-0.448,1-1,1H131.049z"></path><path fill="#f2bf1c" d="M135.985,511.119c-0.751,0-1.457,0.292-1.988,0.823l-11.603,11.603c-1.058,1.058-1.188,2.963-0.273,3.997c0.775,0.875,1.968,1.176,3.115,0.784c0.335-0.114,0.674-0.342,1.008-0.677l11.592-11.593c0.571-0.57,0.896-1.375,0.893-2.207c-0.003-0.753-0.276-1.436-0.771-1.922C137.43,511.406,136.729,511.119,135.985,511.119z"></path><path d="M124.224,530.499c-1.365,0-2.66-0.568-3.601-1.633c-1.623-1.834-1.459-4.919,0.357-6.735l11.604-11.604c0.909-0.908,2.117-1.408,3.402-1.408c1.271,0,2.471,0.491,3.377,1.383c0.877,0.864,1.362,2.05,1.367,3.34c0.005,1.362-0.534,2.685-1.479,3.629l-11.591,11.592c-0.551,0.553-1.149,0.941-1.775,1.156c0,0-0.001,0-0.001,0C125.331,530.407,124.771,530.499,124.224,530.499z M135.985,511.119c-0.751,0-1.457,0.292-1.988,0.823l-11.603,11.603c-1.058,1.058-1.188,2.963-0.273,3.997c0.775,0.875,1.968,1.176,3.115,0.784l0,0c0.335-0.114,0.674-0.342,1.008-0.677l11.592-11.593c0.571-0.57,0.896-1.375,0.893-2.207c-0.003-0.753-0.276-1.436-0.771-1.922C137.43,511.406,136.729,511.119,135.985,511.119z"></path><path fill="#f2bf1c" d="M149.011,503.663c0-1.551-1.262-2.813-2.813-2.813h-15.288c-1.551,0-2.813,1.262-2.813,2.813s1.262,2.813,2.813,2.813h11.475c0.552,0,1,0.447,1,1v11.476c0,1.551,1.262,2.813,2.813,2.813s2.813-1.262,2.813-2.813V503.663z"></path><path d="M146.199,523.764c-2.654,0-4.813-2.159-4.813-4.813v-10.476h-10.475c-2.654,0-4.813-2.159-4.813-4.813s2.159-4.813,4.813-4.813h15.288c2.654,0,4.813,2.159,4.813,4.813v15.288C151.011,521.604,148.853,523.764,146.199,523.764z M130.911,500.851c-1.551,0-2.813,1.262-2.813,2.813s1.262,2.813,2.813,2.813h11.475c0.552,0,1,0.447,1,1v11.476c0,1.551,1.262,2.813,2.813,2.813s2.813-1.262,2.813-2.813v-15.288c0-1.551-1.262-2.813-2.813-2.813H130.911z"></path><path fill="#f2bf1c" d="M180.771,466.498c-0.803,0-1.634,0.305-2.226,0.896l-11.604,11.604c-0.53,0.531-0.822,1.237-0.822,1.987c0,0.743,0.287,1.444,0.808,1.973c0.486,0.494,1.168,0.769,1.921,0.771c0.814-0.022,1.638-0.322,2.209-0.893l11.592-11.592c0.335-0.336,0.563-0.675,0.677-1.008c0.391-1.148,0.091-2.343-0.784-3.116C182.068,466.702,181.429,466.498,180.771,466.498z"></path><path d="M168.861,485.729c-0.007,0-0.014,0-0.021,0c-1.29-0.006-2.475-0.491-3.338-1.368c-0.892-0.905-1.383-2.104-1.383-3.376c0-1.284,0.5-2.492,1.408-3.401l11.604-11.604c1.816-1.816,4.901-1.979,6.736-0.356c1.491,1.317,2.009,3.333,1.352,5.26c0,0.001,0,0.001,0,0.001c-0.213,0.625-0.602,1.222-1.156,1.775l-11.592,11.592C171.53,485.191,170.216,485.729,168.861,485.729z M180.771,466.498c-0.803,0-1.634,0.305-2.226,0.896l-11.604,11.604c-0.53,0.531-0.822,1.237-0.822,1.987c0,0.743,0.287,1.444,0.808,1.973c0.486,0.494,1.168,0.769,1.921,0.771c0.814-0.022,1.638-0.322,2.209-0.893l11.592-11.592c0.335-0.336,0.563-0.675,0.677-1.008c0.391-1.148,0.091-2.343-0.784-3.116C182.068,466.702,181.429,466.498,180.771,466.498z"></path><path fill="#fff" d="M158.663,494.012h15.288c1.551,0,2.813-1.262,2.813-2.813c0-0.088-0.018-0.17-0.026-0.256c-0.695,0.754-1.682,1.235-2.787,1.235h-15.288c-1.118,0-2.115-0.492-2.812-1.261v0.282C155.851,492.75,157.112,494.012,158.663,494.012z"></path><path d="M173.951,496.012h-15.288c-2.654,0-4.813-2.159-4.813-4.813v-15.288c0-2.653,2.159-4.813,4.813-4.813s4.813,2.159,4.813,4.813v10.476h10.476c2.654,0,4.813,2.159,4.813,4.813S176.605,496.012,173.951,496.012z M158.663,473.099c-1.551,0-2.813,1.262-2.813,2.813v15.288c0,1.551,1.262,2.813,2.813,2.813h15.288c1.551,0,2.813-1.262,2.813-2.813s-1.262-2.813-2.813-2.813h-11.476c-0.552,0-1-0.447-1-1v-11.476C161.476,474.36,160.214,473.099,158.663,473.099z"></path></g><g><path fill="#ef3039" d="M502.621,474.141c-1.551,0-2.813,1.262-2.813,2.813v15.288c0,1.551,1.262,2.813,2.813,2.813h15.288c1.551,0,2.813-1.262,2.813-2.813s-1.262-2.813-2.813-2.813h-11.476c-0.553,0-1-0.447-1-1v-11.476C505.434,475.402,504.172,474.141,502.621,474.141z"></path><path fill="#cc060e" d="M492.241,520.722c1.551,0,2.813-1.262,2.813-2.813v-15.288c0-1.551-1.262-2.813-2.813-2.813h-15.288c-1.551,0-2.813,1.262-2.813,2.813s1.262,2.813,2.813,2.813h11.476c0.553,0,1,0.447,1,1v11.476C489.429,519.46,490.69,520.722,492.241,520.722z"></path><path fill="#cc060e" d="M482.853,516.041c0.57-0.57,0.896-1.375,0.893-2.207c-0.003-0.753-0.276-1.436-0.771-1.923c-0.529-0.521-1.23-0.809-1.973-0.809c-0.751,0-1.457,0.292-1.988,0.823l-11.604,11.604c-1.058,1.058-1.188,2.962-0.272,3.996c0.773,0.877,1.97,1.175,3.115,0.784c0.001,0,0.001,0,0.001,0c0.332-0.113,0.671-0.341,1.007-0.677L482.853,516.041z"></path><path d="M469.238,530.482c-1.364,0-2.659-0.568-3.599-1.632c-1.624-1.835-1.461-4.92,0.356-6.735l11.604-11.604c0.909-0.908,2.117-1.408,3.402-1.408c1.271,0,2.471,0.491,3.377,1.384c0.876,0.864,1.361,2.05,1.366,3.34c0.005,1.361-0.533,2.685-1.479,3.629l-11.592,11.592c-0.555,0.555-1.152,0.943-1.776,1.155C470.346,530.391,469.786,530.482,469.238,530.482z M481.002,511.103c-0.751,0-1.457,0.292-1.988,0.823l-11.604,11.604c-1.058,1.058-1.188,2.962-0.272,3.996c0.773,0.877,1.97,1.175,3.115,0.784c0.001,0,0.001,0,0.001,0c0.332-0.113,0.671-0.341,1.007-0.677l11.592-11.592c0.57-0.57,0.896-1.375,0.893-2.207c-0.003-0.753-0.276-1.436-0.771-1.923C482.445,511.39,481.744,511.103,481.002,511.103z"></path><path fill="#fff" d="M492.241,499.809h-15.288c-1.551,0-2.813,1.262-2.813,2.813c0,0.007,0.002,0.014,0.002,0.021c0.694-0.775,1.69-1.271,2.811-1.271h15.288c1.118,0,2.115,0.492,2.813,1.261v-0.01C495.054,501.07,493.792,499.809,492.241,499.809z"></path><path d="M492.241,522.722c-2.653,0-4.813-2.159-4.813-4.813v-10.476h-10.476c-2.653,0-4.813-2.159-4.813-4.813s2.159-4.813,4.813-4.813h15.288c2.653,0,4.813,2.159,4.813,4.813v15.288C497.054,520.563,494.895,522.722,492.241,522.722z M476.953,499.809c-1.551,0-2.813,1.262-2.813,2.813s1.262,2.813,2.813,2.813h11.476c0.553,0,1,0.447,1,1v11.476c0,1.551,1.262,2.813,2.813,2.813s2.813-1.262,2.813-2.813v-15.288c0-1.551-1.262-2.813-2.813-2.813H476.953z"></path><path fill="#ef3039" d="M525.761,466.526c-0.81,0-1.649,0.301-2.231,0.884l-11.604,11.604c-0.53,0.531-0.822,1.237-0.822,1.988c0,0.742,0.287,1.443,0.81,1.973c0.486,0.494,1.169,0.768,1.922,0.771c0.004,0,0.008,0,0.012,0c0.828,0,1.627-0.325,2.195-0.893l11.592-11.592c0.336-0.336,0.563-0.675,0.677-1.007c0,0,0,0,0-0.001c0.392-1.147,0.092-2.342-0.783-3.115C527.062,466.727,526.421,466.526,525.761,466.526z"></path><path d="M513.845,485.745c-0.006,0-0.013,0-0.019,0c-1.29-0.005-2.476-0.49-3.339-1.366c-0.894-0.906-1.385-2.105-1.385-3.377c0-1.285,0.5-2.493,1.407-3.402l11.605-11.604c1.815-1.817,4.9-1.981,6.736-0.356c1.49,1.317,2.008,3.332,1.351,5.259l0,0c-0.212,0.624-0.601,1.222-1.155,1.776l-11.592,11.592C516.515,485.207,515.2,485.745,513.845,485.745z M525.761,466.526c-0.81,0-1.649,0.301-2.231,0.884l-11.604,11.604c-0.53,0.531-0.822,1.237-0.822,1.988c0,0.742,0.287,1.443,0.81,1.973c0.486,0.494,1.169,0.768,1.922,0.771c0.004,0,0.008,0,0.012,0c0.828,0,1.627-0.325,2.195-0.893l11.592-11.592c0.336-0.336,0.563-0.675,0.677-1.007c0,0,0,0,0-0.001c0.392-1.147,0.092-2.342-0.783-3.115C527.062,466.727,526.421,466.526,525.761,466.526z"></path><path fill="#fff" d="M502.621,495.054h15.288c1.551,0,2.813-1.262,2.813-2.813c0-0.112-0.02-0.219-0.033-0.327c-0.696,0.748-1.68,1.223-2.78,1.223h-15.288c-1.117,0-2.114-0.492-2.812-1.26v0.365C499.809,493.792,501.07,495.054,502.621,495.054z"></path><path d="M517.909,497.054h-15.288c-2.653,0-4.813-2.159-4.813-4.813v-15.288c0-2.653,2.159-4.813,4.813-4.813s4.813,2.159,4.813,4.813v10.476h10.476c2.653,0,4.813,2.159,4.813,4.813S520.563,497.054,517.909,497.054z M502.621,474.141c-1.551,0-2.813,1.262-2.813,2.813v15.288c0,1.551,1.262,2.813,2.813,2.813h15.288c1.551,0,2.813-1.262,2.813-2.813s-1.262-2.813-2.813-2.813h-11.476c-0.553,0-1-0.447-1-1v-11.476C505.434,475.402,504.172,474.141,502.621,474.141z"></path></g><g><path fill="#f28c1c" d="M172.285,17.425l-10.18-10.166c-0.472-0.472-1.099-0.731-1.767-0.731c-0.669,0-1.297,0.261-1.77,0.734c-0.974,0.976-0.973,2.563,0.002,3.537l7.702,7.692c0.391,0.39,0.391,1.023,0.001,1.414l-7.692,7.703c-0.471,0.472-0.729,1.1-0.729,1.769c0.001,0.669,0.261,1.296,0.733,1.767c0.945,0.945,2.593,0.944,3.536-0.001l10.167-10.181C173.262,19.986,173.261,18.4,172.285,17.425z"></path><path fill="#fff" d="M172.288,20.962c0.974-0.976,0.973-2.562-0.002-3.537l-10.18-10.166c-0.472-0.472-1.099-0.731-1.767-0.731c-0.669,0-1.297,0.261-1.77,0.734c-0.035,0.035-0.059,0.075-0.091,0.112c0.006,0,0.011-0.002,0.017-0.002c0.935,0,1.813,0.363,2.473,1.023l10.18,10.166c0.694,0.693,1.032,1.608,1.021,2.519L172.288,20.962z"></path><path d="M164.152,19.2l-6.986,6.996c-0.848,0.85-1.315,1.98-1.314,3.183c0.001,1.204,0.47,2.333,1.319,3.181c0.849,0.849,1.979,1.317,3.18,1.317c1.204,0,2.334-0.469,3.185-1.32l10.167-10.181c1.753-1.755,1.752-4.611-0.004-6.365l-10.18-10.166c-0.849-0.849-1.979-1.316-3.181-1.316c-1.204,0-2.334,0.469-3.185,1.321c-1.753,1.756-1.751,4.611,0.004,6.365L164.152,19.2z M158.568,7.262c0.473-0.473,1.101-0.734,1.77-0.734c0.668,0,1.295,0.259,1.767,0.731l10.18,10.166c0.976,0.975,0.977,2.561,0.002,3.537l-10.167,10.181c-0.943,0.945-2.591,0.947-3.536,0.001c-0.472-0.471-0.732-1.098-0.733-1.767c0-0.669,0.258-1.297,0.729-1.769l7.692-7.703c0.39-0.391,0.39-1.024-0.001-1.414l-7.702-7.692C157.595,9.825,157.594,8.238,158.568,7.262z"></path><path fill="#f28c1c" d="M177.439,48.493c-0.357-0.634-0.968-1.094-1.674-1.263c-1.294-0.309-2.667,0.466-3.08,1.748c-2.752,8.542-10.636,14.281-19.617,14.281c-0.001,0-0.001,0-0.002,0c-2.387,0-4.757-0.417-7.046-1.24c-8.981-3.228-14.626-12.443-13.421-21.914c1.291-10.147,9.949-17.922,20.139-18.087c1.157-0.018,2.167-0.821,2.457-1.954c0.201-0.784,0.032-1.599-0.463-2.238c-0.51-0.657-1.274-1.019-2.153-1.019c-12.308,0.216-22.812,9.211-24.958,21.389c-2.254,12.795,5.41,25.315,17.829,29.122c2.497,0.765,5.066,1.152,7.636,1.152h0.002c11.255-0.001,21.127-7.201,24.564-17.917C177.87,49.873,177.793,49.121,177.439,48.493z"></path><path d="M179.181,47.511c-0.63-1.117-1.706-1.929-2.953-2.226c-0.348-0.083-0.706-0.125-1.064-0.125c-2.003,0-3.765,1.288-4.383,3.205c-2.485,7.713-9.604,12.895-17.714,12.895c0,0-0.001,0-0.002,0c-2.156,0-4.299-0.377-6.37-1.122c-8.107-2.913-13.201-11.232-12.114-19.78c1.166-9.167,8.985-16.191,18.187-16.339c2.055-0.033,3.849-1.454,4.363-3.457c0.355-1.387,0.057-2.831-0.82-3.961c-0.897-1.156-2.223-1.792-3.751-1.792c-13.28,0.232-24.598,9.923-26.911,23.042c-2.429,13.788,5.831,27.279,19.212,31.381c2.688,0.823,5.454,1.24,8.222,1.24h0.002c12.128-0.001,22.765-7.759,26.468-19.305C179.944,49.957,179.808,48.624,179.181,47.511z M177.65,50.555c-3.438,10.716-13.309,17.916-24.564,17.917h-0.002c-2.569,0-5.139-0.388-7.636-1.152c-12.418-3.807-20.083-16.327-17.829-29.122c2.147-12.178,12.651-21.173,24.958-21.389c0.879,0,1.644,0.362,2.153,1.019c0.495,0.639,0.664,1.454,0.463,2.238c-0.29,1.132-1.3,1.936-2.457,1.954c-10.19,0.165-18.848,7.94-20.139,18.087c-1.205,9.47,4.44,18.686,13.421,21.914c2.289,0.823,4.66,1.24,7.046,1.24c0.001,0,0.001,0,0.002,0c8.981,0,16.865-5.739,19.617-14.281c0.413-1.282,1.785-2.057,3.08-1.748c0.707,0.168,1.317,0.629,1.674,1.263C177.793,49.121,177.87,49.873,177.65,50.555z"></path></g><g><path fill="#f28c1c" d="M262.148,259.377c0-0.669-0.258-1.297-0.729-1.769l-7.692-7.703c-0.39-0.391-0.39-1.024,0.001-1.414l7.702-7.692c0.975-0.974,0.976-2.561,0.002-3.537c-0.473-0.473-1.101-0.734-1.77-0.734c-0.668,0-1.295,0.259-1.767,0.73l-10.181,10.167c-0.976,0.975-0.977,2.561-0.002,3.537l10.167,10.181c0.944,0.946,2.592,0.946,3.536,0.002C261.887,260.673,262.147,260.046,262.148,259.377z"></path><path fill="#fff" d="M259.662,236.528c-0.668,0-1.295,0.259-1.767,0.73l-10.181,10.167c-0.976,0.975-0.977,2.561-0.002,3.537l0.108,0.108c-0.011-0.911,0.327-1.826,1.021-2.519l10.18-10.166c0.66-0.66,1.539-1.023,2.473-1.023c0.007,0,0.013,0.002,0.019,0.002c-0.029-0.033-0.051-0.07-0.083-0.101C260.959,236.789,260.331,236.528,259.662,236.528z"></path><path d="M259.648,263.876c-1.204,0-2.334-0.469-3.185-1.32l-10.167-10.181c-1.753-1.755-1.752-4.611,0.004-6.365l10.18-10.166c0.848-0.849,1.978-1.316,3.18-1.316c1.204,0,2.334,0.469,3.185,1.321c1.753,1.756,1.751,4.611-0.004,6.365l-6.995,6.986l6.986,6.996c0.848,0.85,1.315,1.98,1.314,3.183c-0.001,1.204-0.47,2.333-1.32,3.182C261.979,263.408,260.85,263.876,259.648,263.876z M259.662,236.528c-0.668,0-1.295,0.259-1.767,0.73l-10.181,10.167c-0.976,0.975-0.977,2.561-0.002,3.537l10.167,10.181c0.944,0.946,2.592,0.946,3.536,0.002c0.473-0.472,0.732-1.099,0.733-1.768c0-0.669-0.258-1.297-0.729-1.769l-7.692-7.703c-0.39-0.391-0.39-1.024,0.001-1.414l7.702-7.692c0.975-0.974,0.976-2.561,0.002-3.537C260.959,236.789,260.331,236.528,259.662,236.528z"></path><path fill="#f28c1c" d="M244.236,277.23c-0.707,0.168-1.317,0.629-1.675,1.263c-0.354,0.628-0.431,1.379-0.212,2.061c3.438,10.717,13.31,17.917,24.565,17.918l0.002,1v-1c2.571,0,5.14-0.388,7.635-1.152c12.419-3.808,20.084-16.327,17.829-29.121c-2.147-12.178-12.65-21.173-24.976-21.389c-0.861,0-1.626,0.362-2.136,1.019c-0.495,0.638-0.664,1.454-0.463,2.237c0.29,1.132,1.3,1.936,2.457,1.954c10.19,0.165,18.849,7.94,20.14,18.087c1.205,9.47-4.439,18.685-13.422,21.913c-2.289,0.823-4.659,1.24-7.046,1.24c-8.983,0-16.868-5.739-19.62-14.282c-0.351-1.088-1.347-1.818-2.479-1.818C244.634,277.159,244.433,277.183,244.236,277.23z"></path><path d="M266.917,300.472h-0.002c-12.128-0.001-22.765-7.76-26.469-19.306c-0.39-1.21-0.253-2.542,0.374-3.655c0.63-1.118,1.707-1.929,2.952-2.226c0.348-0.084,0.707-0.126,1.064-0.126c2.003,0,3.765,1.288,4.383,3.205c2.485,7.713,9.604,12.896,17.716,12.896c2.155,0,4.298-0.378,6.369-1.123c8.107-2.913,13.202-11.23,12.114-19.778c-1.166-9.167-8.984-16.191-18.187-16.339c-2.055-0.033-3.849-1.454-4.362-3.457c-0.355-1.387-0.057-2.831,0.82-3.96c0.897-1.156,2.223-1.793,3.733-1.793c13.298,0.232,24.616,9.923,26.927,23.042c2.431,13.787-5.829,27.278-19.212,31.381C272.452,300.055,269.687,300.472,266.917,300.472z M244.835,277.159c-0.201,0-0.403,0.023-0.6,0.071c-0.707,0.168-1.317,0.629-1.675,1.263c-0.354,0.628-0.431,1.379-0.212,2.061c3.438,10.717,13.31,17.917,24.565,17.918l0.002,1v-1c2.571,0,5.14-0.388,7.635-1.152c12.419-3.808,20.084-16.327,17.829-29.121c-2.147-12.178-12.65-21.173-24.976-21.389c-0.861,0-1.626,0.362-2.136,1.019c-0.495,0.638-0.664,1.454-0.463,2.237c0.29,1.132,1.3,1.936,2.457,1.954c10.19,0.165,18.849,7.94,20.14,18.087c1.205,9.47-4.439,18.685-13.422,21.913c-2.289,0.823-4.659,1.24-7.046,1.24c-8.983,0-16.868-5.739-19.62-14.282C246.964,277.89,245.968,277.159,244.835,277.159z"></path></g><g><path d="M400.799,60.01c-1.201,0-2.331-0.466-3.18-1.313l-10.177-10.164c-0.851-0.848-1.32-1.979-1.32-3.184c0-1.201,0.468-2.33,1.315-3.18c0.852-0.85,1.982-1.318,3.186-1.318c1.201,0,2.331,0.466,3.179,1.313l6.993,6.983l6.982-6.992c0.849-0.85,1.979-1.318,3.184-1.318c1.201,0,2.331,0.466,3.18,1.313c0.853,0.852,1.321,1.982,1.321,3.185s-0.468,2.332-1.316,3.18l-10.163,10.176C403.136,59.541,402.005,60.01,400.799,60.01z M390.623,42.852c-0.67,0-1.299,0.26-1.771,0.732c-0.471,0.471-0.73,1.099-0.73,1.766c0,0.669,0.261,1.296,0.733,1.768l10.177,10.165c0.943,0.941,2.599,0.938,3.533-0.002l10.165-10.178c0.472-0.471,0.731-1.098,0.731-1.766s-0.261-1.296-0.734-1.769c-0.941-0.939-2.593-0.939-3.534,0.002l-7.689,7.699c-0.391,0.392-1.024,0.391-1.415,0.001l-7.7-7.689C391.919,43.11,391.291,42.852,390.623,42.852z"></path><path fill="#f2bf1c" d="M409.193,43.569l-7.689,7.699c-0.391,0.392-1.024,0.391-1.415,0.001l-7.7-7.689c-0.47-0.469-1.098-0.728-1.766-0.728c-0.67,0-1.299,0.26-1.771,0.732c-0.471,0.471-0.73,1.099-0.73,1.766c0,0.669,0.261,1.296,0.733,1.768l10.177,10.165c0.943,0.941,2.599,0.938,3.533-0.002l10.165-10.178c0.472-0.471,0.731-1.098,0.731-1.766s-0.261-1.296-0.734-1.769C411.786,42.627,410.135,42.627,409.193,43.569z"></path><path fill="#fff" d="M388.855,47.117l10.177,10.165c0.879,0.878,2.37,0.924,3.326,0.166c-0.933-0.001-1.811-0.363-2.47-1.021l-10.176-10.163c-0.663-0.661-1.027-1.54-1.027-2.475c-0.358,0.442-0.563,0.984-0.563,1.561C388.122,46.018,388.383,46.646,388.855,47.117z"></path><path fill="#f2bf1c" d="M381.802,12.628c-1.477-0.261-2.982-0.393-4.474-0.393c-11.219,0-21.351,7.49-24.637,18.215c-0.766,2.496-1.153,5.064-1.153,7.635c0.001,11.251,7.199,21.119,17.911,24.557c0.674,0.216,1.441,0.137,2.063-0.212c0.633-0.357,1.093-0.967,1.262-1.674c0.047-0.196,0.07-0.398,0.07-0.6c0-1.131-0.73-2.127-1.818-2.478c-8.54-2.752-14.277-10.634-14.276-19.613c0-2.387,0.417-4.757,1.238-7.043c2.919-8.122,10.698-13.579,19.357-13.579c0.853,0,1.71,0.054,2.55,0.161c10.146,1.291,17.919,9.946,18.082,20.133c0.019,1.156,0.821,2.166,1.952,2.456c0.787,0.204,1.6,0.032,2.237-0.463c0.656-0.509,1.018-1.273,1.018-2.152C402.97,25.274,393.978,14.774,381.802,12.628z"></path><path d="M370.232,64.764c-0.474,0-0.942-0.073-1.394-0.217c-11.544-3.704-19.3-14.338-19.301-26.461c0-2.77,0.418-5.535,1.241-8.221c3.542-11.558,14.459-19.629,26.549-19.629c1.607,0,3.229,0.142,4.821,0.423c13.116,2.312,22.803,13.625,23.034,26.901c0,1.528-0.636,2.854-1.791,3.75c-1.124,0.872-2.578,1.177-3.961,0.82c-2.001-0.512-3.423-2.306-3.455-4.361c-0.147-9.198-7.17-17.014-16.334-18.18c-0.757-0.097-1.53-0.146-2.298-0.146c-7.818,0-14.841,4.925-17.475,12.256c-0.744,2.069-1.121,4.211-1.121,6.367c-0.001,8.108,5.179,15.225,12.89,17.71c1.917,0.618,3.205,2.378,3.205,4.381c0,0.356-0.042,0.713-0.125,1.063c-0.298,1.248-1.109,2.324-2.226,2.954C371.806,64.56,371.023,64.764,370.232,64.764z M377.328,12.236c-11.219,0-21.351,7.49-24.637,18.215c-0.766,2.496-1.153,5.064-1.153,7.635c0.001,11.251,7.199,21.119,17.911,24.557c0.674,0.216,1.441,0.137,2.063-0.212c0.633-0.357,1.093-0.967,1.262-1.674c0.047-0.196,0.07-0.398,0.07-0.6c0-1.131-0.73-2.127-1.818-2.478c-8.54-2.752-14.277-10.634-14.276-19.613c0-2.387,0.417-4.757,1.238-7.043c2.919-8.122,10.698-13.579,19.357-13.579c0.853,0,1.71,0.054,2.55,0.161c10.146,1.291,17.919,9.946,18.082,20.133c0.019,1.156,0.821,2.166,1.952,2.456c0.787,0.204,1.6,0.032,2.237-0.463c0.656-0.509,1.018-1.273,1.018-2.152c-0.214-12.304-9.206-22.804-21.382-24.949C380.325,12.368,378.819,12.236,377.328,12.236z"></path></g><g><path fill="#37c3f4" d="M256.474 10.723c0-1.381-1.125-2.504-2.507-2.504l-14.389.009c-.667 0-1.295.263-1.769.737-.474.474-.734 1.103-.733 1.77.001 1.38 1.126 2.503 2.507 2.503l10.882-.007h0c.552 0 1 .447 1 .999l.009 10.882c0 .67.261 1.299.734 1.771.473.473 1.103.733 1.772.733 1.38-.001 2.503-1.126 2.503-2.508L256.474 10.723zM278.516 49.892l.01 14.387c0 1.381 1.123 2.504 2.504 2.504l14.392-.009c.668 0 1.297-.262 1.771-.737.474-.474.734-1.103.733-1.771-.001-1.38-1.126-2.503-2.507-2.503l-10.883.007c-.001 0-.001 0-.001 0-.552 0-1-.447-1-.999l-.009-10.882c0-.67-.261-1.3-.733-1.772-.474-.472-1.104-.732-1.774-.732C279.639 47.385 278.516 48.51 278.516 49.892z"></path><path d="M281.033,68.783c-0.001,0-0.004,0-0.004,0c-2.483,0-4.504-2.021-4.504-4.504l-0.01-14.387c0-2.484,2.02-4.506,4.501-4.508c1.204,0,2.336,0.468,3.188,1.316c0.852,0.852,1.32,1.983,1.32,3.187l0.008,9.882l9.884-0.006c2.483,0,4.505,2.019,4.508,4.501c0.001,1.202-0.467,2.333-1.318,3.186c-0.851,0.853-1.981,1.323-3.184,1.324L281.033,68.783z M281.018,47.385c-1.379,0-2.502,1.125-2.502,2.507l0.01,14.387c0,1.381,1.123,2.504,2.504,2.504l14.392-0.009c0.668,0,1.297-0.262,1.771-0.737c0.474-0.474,0.734-1.103,0.733-1.771c-0.001-1.38-1.126-2.503-2.507-2.503l-10.883,0.007c-0.001,0-0.001,0-0.001,0c-0.552,0-1-0.447-1-0.999l-0.009-10.882c0-0.67-0.261-1.3-0.733-1.772C282.318,47.645,281.688,47.385,281.018,47.385z"></path><path fill="#37c3f4" d="M293.629,50.974c1.109,0,2.098-0.66,2.517-1.681c1.405-3.429,2.177-7.053,2.294-10.769c0.257-8.159-2.931-16.31-8.745-22.363c-5.889-6.127-13.659-9.544-21.883-9.622c-0.293,0.017-1.017,0.058-1.939,0.125c-0.762,0.056-1.462,0.44-1.921,1.054c-0.459,0.615-0.629,1.396-0.466,2.145c0.264,1.209,1.304,2.086,2.473,2.086h0l0.156-0.004c0.429-0.023,0.888-0.036,1.348-0.036c1.259,0,2.537,0.092,3.798,0.275c11.284,1.629,20.395,11.058,21.661,22.42c0.479,4.308-0.131,8.686-1.766,12.662c-0.411,1-0.187,2.141,0.573,2.908C292.239,50.69,292.915,50.974,293.629,50.974z"></path><path d="M293.629,52.974c-1.251,0-2.43-0.494-3.32-1.39c-1.326-1.34-1.72-3.333-1.002-5.077c1.507-3.666,2.069-7.705,1.627-11.68c-1.167-10.472-9.562-19.162-19.959-20.663c-1.592-0.23-3.2-0.303-4.782-0.221l-0.209,0.005c0,0-0.001,0-0.002,0c-2.127,0-3.988-1.539-4.451-3.66c-0.286-1.315,0.012-2.688,0.818-3.768c0.806-1.078,2.036-1.753,3.376-1.852c1.059-0.078,1.86-0.121,2-0.128c8.857,0.075,17.142,3.71,23.41,10.234c6.186,6.439,9.576,15.118,9.302,23.812c-0.123,3.956-0.945,7.813-2.442,11.465C297.268,51.827,295.554,52.974,293.629,52.974z M267.462,11.911c1.259,0,2.537,0.092,3.798,0.275c11.284,1.629,20.395,11.058,21.661,22.42c0.479,4.308-0.131,8.686-1.766,12.662c-0.411,1-0.187,2.141,0.573,2.908c0.51,0.514,1.186,0.798,1.899,0.798c1.109,0,2.098-0.66,2.517-1.681c1.405-3.429,2.177-7.053,2.294-10.769c0.257-8.159-2.931-16.31-8.745-22.363c-5.889-6.127-13.659-9.544-21.883-9.622c-0.293,0.017-1.017,0.058-1.939,0.125c-0.762,0.056-1.462,0.44-1.921,1.054c-0.459,0.615-0.629,1.396-0.466,2.145c0.264,1.209,1.304,2.086,2.473,2.086h0l0.156-0.004C266.543,11.923,267.003,11.911,267.462,11.911z"></path><path fill="#fff" d="M253.967 8.219l-14.389.009c-.667 0-1.295.263-1.769.737-.472.472-.731 1.098-.733 1.762.009-.01.015-.021.025-.031.663-.664 1.542-1.03 2.477-1.031l14.389-.009c.983 0 1.869.408 2.506 1.06C256.47 9.338 255.347 8.219 253.967 8.219zM295.413 66.783l-14.389-.009c-.667 0-1.295-.263-1.769-.737-.472-.472-.731-1.098-.733-1.762.009.01.015.021.025.031.663.664 1.542 1.03 2.477 1.031l14.389.009c.983 0 1.869-.408 2.506-1.06C297.915 65.664 296.793 66.783 295.413 66.783z"></path><path d="M253.982,29.617L253.982,29.617L253.982,29.617L253.982,29.617L253.982,29.617c-1.205,0-2.336-0.468-3.186-1.318c-0.852-0.849-1.321-1.981-1.321-3.186l-0.008-9.882l-9.883,0.006c-2.483,0-4.505-2.019-4.508-4.501c-0.001-1.202,0.467-2.333,1.318-3.185c0.851-0.853,1.981-1.323,3.183-1.324l14.39-0.009c2.485,0,4.507,2.02,4.507,4.503l0.01,14.387C258.484,27.594,256.464,29.616,253.982,29.617L253.982,29.617z M250.466,13.231c0.552,0,1,0.447,1,0.999l0.009,10.882c0,0.67,0.261,1.299,0.734,1.771c0.473,0.473,1.103,0.733,1.772,0.733c1.38-0.001,2.503-1.126,2.503-2.508l-0.01-14.387c0-1.381-1.125-2.504-2.507-2.504l-14.389,0.009c-0.667,0-1.295,0.263-1.769,0.737c-0.474,0.474-0.734,1.103-0.733,1.77c0.001,1.38,1.126,2.503,2.507,2.503L250.466,13.231L250.466,13.231z"></path><path fill="#37c3f4" d="M241.37,24.027c-1.109,0-2.096,0.66-2.515,1.681c-1.406,3.427-2.178,7.05-2.294,10.769c-0.257,8.159,2.93,16.31,8.746,22.363c5.878,6.117,13.655,9.533,21.9,9.62c0.213-0.012,0.958-0.053,1.92-0.123c0.763-0.057,1.463-0.441,1.921-1.054c0.46-0.615,0.63-1.397,0.467-2.146c-0.263-1.209-1.303-2.086-2.473-2.086l-0.156,0.004c-1.607,0.088-3.425,0.01-5.147-0.239c-11.285-1.629-20.394-11.058-21.66-22.42c-0.48-4.31,0.13-8.688,1.765-12.663c0.411-1,0.186-2.141-0.574-2.908C242.76,24.311,242.084,24.027,241.37,24.027z"></path><path d="M267.223,70.461c-0.001,0-0.002,0-0.004,0c-8.799-0.084-17.094-3.719-23.355-10.235c-6.186-6.438-9.576-15.117-9.302-23.812c0.125-3.958,0.946-7.816,2.443-11.465c0.728-1.775,2.441-2.922,4.366-2.922c1.251,0,2.431,0.494,3.32,1.39c1.327,1.339,1.721,3.332,1.003,5.077c-1.507,3.665-2.07,7.704-1.627,11.68c1.167,10.472,9.561,19.161,19.958,20.662c1.594,0.23,3.203,0.306,4.784,0.221l0.209-0.005h0.001c2.128,0,3.989,1.539,4.451,3.661c0.286,1.315-0.013,2.688-0.819,3.768c-0.805,1.078-2.035,1.753-3.377,1.852c-0.991,0.073-1.757,0.115-1.964,0.126C267.289,70.459,267.246,70.461,267.223,70.461z M241.37,24.027c-1.109,0-2.096,0.66-2.515,1.681c-1.406,3.427-2.178,7.05-2.294,10.769c-0.257,8.159,2.93,16.31,8.746,22.363c5.878,6.117,13.655,9.533,21.9,9.62c0.213-0.012,0.958-0.053,1.92-0.123c0.763-0.057,1.463-0.441,1.921-1.054c0.46-0.615,0.63-1.397,0.467-2.146c-0.263-1.209-1.303-2.086-2.473-2.086l-0.156,0.004c-1.607,0.088-3.425,0.01-5.147-0.239c-11.285-1.629-20.394-11.058-21.66-22.42c-0.48-4.31,0.13-8.688,1.765-12.663c0.411-1,0.186-2.141-0.574-2.908C242.76,24.311,242.084,24.027,241.37,24.027z"></path></g><g><path fill="#37c3f4" d="M399.494,154.405c0.531-0.532,0.824-1.238,0.824-1.989c0-0.751-0.293-1.458-0.824-1.988l-10.81-10.811c-0.531-0.532-1.237-0.824-1.988-0.824c-0.752,0-1.458,0.292-1.989,0.824c-0.531,0.531-0.824,1.237-0.824,1.989c0,0.751,0.293,1.457,0.824,1.988l8.114,8.115c0.391,0.391,0.391,1.023,0,1.414l-8.114,8.114c-0.531,0.531-0.824,1.237-0.824,1.989c0,0.751,0.293,1.457,0.824,1.988c1.062,1.062,2.914,1.063,3.978,0L399.494,154.405z"></path><path fill="#37c3f4" d="M382.785,149.584h-27.321c-1.551,0-2.813,1.261-2.813,2.812s1.262,2.813,2.813,2.813h27.321c1.551,0,2.813-1.262,2.813-2.813S384.336,149.584,382.785,149.584z"></path><path d="M382.785,157.209h-27.321c-2.653,0-4.813-2.159-4.813-4.813c0-2.653,2.159-4.812,4.813-4.812h27.321c2.653,0,4.813,2.159,4.813,4.812C387.598,155.05,385.438,157.209,382.785,157.209z M355.464,149.584c-1.551,0-2.813,1.261-2.813,2.812s1.262,2.813,2.813,2.813h27.321c1.551,0,2.813-1.262,2.813-2.813s-1.262-2.812-2.813-2.812H355.464z"></path><path fill="#fff" d="M399.494,154.405c0.531-0.532,0.824-1.238,0.824-1.989c0-0.751-0.293-1.458-0.824-1.988l-0.194-0.194c0.003,0.061,0.018,0.12,0.018,0.182c0,1.019-0.397,1.976-1.117,2.696l-10.81,10.81c-0.72,0.72-1.678,1.117-2.695,1.117c-0.05,0-0.097-0.013-0.146-0.015c0.053,0.063,0.098,0.132,0.157,0.191c1.062,1.062,2.914,1.063,3.978,0L399.494,154.405z"></path><path d="M386.696,168.038c-1.286,0-2.495-0.5-3.403-1.41c-0.909-0.909-1.41-2.117-1.41-3.402c0-1.286,0.501-2.494,1.41-3.403l7.407-7.407l-7.407-7.408c-0.909-0.909-1.41-2.117-1.41-3.402c0-1.286,0.501-2.494,1.41-3.403c0.908-0.909,2.117-1.41,3.403-1.41c1.285,0,2.494,0.501,3.402,1.41l10.81,10.81c0.909,0.909,1.41,2.117,1.41,3.403c0,1.285-0.501,2.494-1.41,3.403l-10.81,10.81C389.19,167.538,387.982,168.038,386.696,168.038z M386.696,138.793c-0.752,0-1.458,0.292-1.989,0.824c-0.531,0.531-0.824,1.237-0.824,1.989c0,0.751,0.293,1.457,0.824,1.988l8.114,8.115c0.391,0.391,0.391,1.023,0,1.414l-8.114,8.114c-0.531,0.531-0.824,1.237-0.824,1.989c0,0.751,0.293,1.457,0.824,1.988c1.062,1.062,2.914,1.063,3.978,0l10.81-10.81c0.531-0.532,0.824-1.238,0.824-1.989c0-0.751-0.293-1.458-0.824-1.988l-10.81-10.811C388.153,139.085,387.447,138.793,386.696,138.793z"></path><path fill="#ef3039" d="M376.279,183.584h31.003c2.794,0,5.066-2.272,5.066-5.066v-52.037c0-2.793-2.272-5.066-5.066-5.066h-31.003c-2.793,0-5.065,2.272-5.065,5.066v12.802c0,1.661,1.352,3.013,3.013,3.013c0.806,0,1.563-0.314,2.131-0.883c0.569-0.57,0.883-1.328,0.882-2.134l-0.022-10.8c-0.001-0.552,0.445-1.001,0.998-1.002l27.068-0.057c0.001,0,0.001,0,0.002,0c0.265,0,0.519,0.105,0.706,0.292c0.188,0.188,0.294,0.442,0.294,0.707l0.062,48.164c0,0.266-0.104,0.521-0.292,0.708c-0.188,0.188-0.442,0.293-0.708,0.293h-27.069c-0.552,0-0.999-0.446-1-0.998l-0.023-11.035c-0.002-1.665-1.356-3.018-3.021-3.018c-1.665,0-3.02,1.355-3.02,3.021v12.965C371.214,181.312,373.486,183.584,376.279,183.584z"></path><path d="M407.282,185.584h-31.003c-3.896,0-7.065-3.17-7.065-7.066v-12.965c0-2.769,2.252-5.021,5.02-5.021c2.766,0,5.019,2.25,5.021,5.015l0.021,10.036h25.07l-0.06-46.162l-25.067,0.053l0.021,9.801c0.001,1.342-0.52,2.603-1.466,3.55c-0.947,0.948-2.207,1.47-3.547,1.47c-2.764,0-5.013-2.249-5.013-5.013v-12.802c0-3.896,3.17-7.066,7.065-7.066h31.003c3.896,0,7.066,3.17,7.066,7.066v52.037C414.349,182.415,411.179,185.584,407.282,185.584z M374.233,162.533c-1.665,0-3.02,1.355-3.02,3.021v12.965c0,2.793,2.272,5.066,5.065,5.066h31.003c2.794,0,5.066-2.272,5.066-5.066v-52.037c0-2.793-2.272-5.066-5.066-5.066h-31.003c-2.793,0-5.065,2.272-5.065,5.066v12.802c0,1.661,1.352,3.013,3.013,3.013c0.806,0,1.563-0.314,2.131-0.883c0.569-0.57,0.883-1.328,0.882-2.134l-0.022-10.8c-0.001-0.552,0.445-1.001,0.998-1.002l27.068-0.057c0.001,0,0.001,0,0.002,0c0.265,0,0.519,0.105,0.706,0.292c0.188,0.188,0.294,0.442,0.294,0.707l0.062,48.164c0,0.266-0.104,0.521-0.292,0.708c-0.188,0.188-0.442,0.293-0.708,0.293h-27.069c-0.552,0-0.999-0.446-1-0.998l-0.023-11.035C377.252,163.887,375.897,162.533,374.233,162.533z"></path></g><g><path fill="#37c3f4" d="M527.66,154.573c0.531-0.531,0.824-1.237,0.824-1.989c0-0.751-0.293-1.457-0.824-1.989l-10.81-10.81c-0.531-0.531-1.237-0.824-1.988-0.824c-0.752,0-1.458,0.292-1.989,0.824s-0.824,1.237-0.824,1.988c0,0.751,0.293,1.458,0.824,1.988l8.114,8.115c0.391,0.391,0.391,1.023,0,1.414l-8.114,8.115c-0.531,0.531-0.824,1.237-0.824,1.988c0,0.751,0.293,1.458,0.824,1.988c1.061,1.063,2.913,1.064,3.978,0L527.66,154.573z"></path><path fill="#37c3f4" d="M483.63,148.791c-2.103,0-3.813,1.71-3.813,3.813s1.71,3.812,3.813,3.812h27.321c2.103,0,3.813-1.71,3.813-3.812s-1.71-3.813-3.813-3.813H483.63z"></path><path d="M510.951,157.416H483.63c-2.653,0-4.813-2.159-4.813-4.812c0-2.654,2.159-4.813,4.813-4.813h27.321c2.653,0,4.813,2.159,4.813,4.813C515.764,155.257,513.604,157.416,510.951,157.416z M483.63,149.791c-1.551,0-2.813,1.262-2.813,2.813s1.262,2.812,2.813,2.812h27.321c1.551,0,2.813-1.261,2.813-2.812s-1.262-2.813-2.813-2.813H483.63z"></path><path fill="#fff" d="M526.523,153.436l-10.81,10.81c-0.72,0.72-1.678,1.117-2.695,1.117c-0.061,0-0.118-0.018-0.178-0.021c0.012,0.013,0.02,0.028,0.033,0.04c1.061,1.063,2.913,1.064,3.978,0l10.81-10.81c0.531-0.531,0.824-1.237,0.824-1.989c0-0.751-0.293-1.457-0.824-1.989l-0.038-0.038c0.003,0.061,0.018,0.12,0.018,0.182C527.64,151.759,527.244,152.716,526.523,153.436z"></path><path d="M514.862,168.207c-1.286,0-2.495-0.501-3.403-1.41c-0.909-0.909-1.41-2.117-1.41-3.403c0-1.285,0.501-2.494,1.41-3.403l7.407-7.407l-7.407-7.407c-0.909-0.909-1.41-2.117-1.41-3.403c0-1.285,0.501-2.494,1.41-3.403c0.908-0.909,2.117-1.409,3.403-1.409s2.494,0.5,3.402,1.41l10.81,10.81c0.909,0.909,1.41,2.118,1.41,3.403c0,1.286-0.501,2.494-1.41,3.403l-10.81,10.81C517.356,167.706,516.147,168.207,514.862,168.207z M514.862,138.962c-0.752,0-1.458,0.292-1.989,0.824s-0.824,1.237-0.824,1.988c0,0.751,0.293,1.458,0.824,1.988l8.114,8.115c0.391,0.391,0.391,1.023,0,1.414l-8.114,8.115c-0.531,0.531-0.824,1.237-0.824,1.988c0,0.751,0.293,1.458,0.824,1.988c1.061,1.063,2.913,1.064,3.978,0l10.81-10.81c0.531-0.531,0.824-1.237,0.824-1.989c0-0.751-0.293-1.457-0.824-1.989l-10.81-10.81C516.319,139.254,515.613,138.962,514.862,138.962z"></path><path fill="#ef3039" d="M507.65,126.481c0-2.793-2.272-5.066-5.065-5.066h-31.003c-2.794,0-5.066,2.272-5.066,5.066v52.037c0,2.793,2.272,5.066,5.066,5.066h31.003c2.793,0,5.065-2.272,5.065-5.066v-12.802c0-1.661-1.352-3.013-3.013-3.013c-0.806,0-1.563,0.314-2.131,0.883c-0.569,0.57-0.883,1.328-0.882,2.134l0.022,10.8c0.001,0.552-0.445,1.001-0.998,1.002l-27.068,0.057c-0.001,0-0.001,0-0.002,0c-0.265,0-0.519-0.105-0.706-0.292c-0.188-0.188-0.294-0.442-0.294-0.707l-0.062-48.164c0-0.266,0.104-0.521,0.292-0.708c0.188-0.188,0.442-0.293,0.708-0.293h27.069c0.552,0,0.999,0.446,1,0.998l0.023,11.035c0.002,1.665,1.356,3.018,3.021,3.018c1.665,0,3.02-1.355,3.02-3.021V126.481z"></path><path d="M502.585,185.584h-31.003c-3.896,0-7.066-3.17-7.066-7.066v-52.037c0-3.896,3.17-7.066,7.066-7.066h31.003c3.896,0,7.065,3.17,7.065,7.066v12.965c0,2.769-2.252,5.021-5.02,5.021c-2.766,0-5.019-2.25-5.021-5.015l-0.021-10.036h-25.07l0.06,46.162l25.067-0.053l-0.021-9.801c-0.001-1.342,0.52-2.603,1.466-3.55c0.947-0.948,2.207-1.47,3.547-1.47c2.764,0,5.013,2.249,5.013,5.013v12.802C509.65,182.415,506.48,185.584,502.585,185.584z M471.582,121.416c-2.794,0-5.066,2.272-5.066,5.066v52.037c0,2.793,2.272,5.066,5.066,5.066h31.003c2.793,0,5.065-2.272,5.065-5.066v-12.802c0-1.661-1.352-3.013-3.013-3.013c-0.806,0-1.563,0.314-2.131,0.883c-0.569,0.57-0.883,1.328-0.882,2.134l0.022,10.8c0.001,0.552-0.445,1.001-0.998,1.002l-27.068,0.057c-0.001,0-0.001,0-0.002,0c-0.265,0-0.519-0.105-0.706-0.292c-0.188-0.188-0.294-0.442-0.294-0.707l-0.062-48.164c0-0.266,0.104-0.521,0.292-0.708c0.188-0.188,0.442-0.293,0.708-0.293h27.069c0.552,0,0.999,0.446,1,0.998l0.023,11.035c0.002,1.665,1.356,3.018,3.021,3.018c1.665,0,3.02-1.355,3.02-3.021v-12.965c0-2.793-2.272-5.066-5.065-5.066H471.582z"></path></g><g><path fill="#41d88d" d="M174.081,282.774c-1.063-1.063-2.915-1.063-3.977,0l-8.115,8.114c-0.391,0.391-1.023,0.391-1.414,0l-8.114-8.114c-0.531-0.531-1.237-0.824-1.989-0.824c-0.751,0-1.457,0.293-1.988,0.824c-0.532,0.531-0.825,1.237-0.825,1.989c0,0.751,0.292,1.457,0.824,1.988l10.81,10.81c1.063,1.063,2.916,1.063,3.977,0l10.811-10.81C175.177,285.655,175.177,283.871,174.081,282.774z"></path><path fill="#fff" d="M174.081,282.774c-0.124-0.124-0.26-0.23-0.403-0.325c0.03,1.011-0.328,2.031-1.098,2.801l-10.811,10.81c-0.72,0.721-1.677,1.117-2.696,1.117c-0.062,0-0.121-0.015-0.182-0.018l0.402,0.402c1.063,1.063,2.916,1.063,3.977,0l10.811-10.81C175.177,285.655,175.177,283.871,174.081,282.774z"></path><path d="M161.282,300.386c-1.285,0-2.494-0.501-3.403-1.41l-10.81-10.81c-0.909-0.908-1.41-2.117-1.41-3.402c0-1.286,0.501-2.495,1.41-3.403c0.909-0.909,2.117-1.41,3.402-1.41c1.286,0,2.494,0.501,3.403,1.41l7.407,7.407l7.408-7.407c0.909-0.909,2.117-1.41,3.402-1.41c1.286,0,2.494,0.501,3.403,1.41c1.875,1.876,1.875,4.929,0,6.806l-10.811,10.81C163.776,299.885,162.568,300.386,161.282,300.386z M150.472,281.95c-0.751,0-1.457,0.293-1.988,0.824c-0.532,0.531-0.825,1.237-0.825,1.989c0,0.751,0.292,1.457,0.824,1.988l10.81,10.81c1.063,1.063,2.916,1.063,3.977,0l10.811-10.81c1.096-1.097,1.096-2.881,0-3.978c-1.063-1.063-2.915-1.063-3.977,0l-8.115,8.114c-0.391,0.391-1.023,0.391-1.414,0l-8.114-8.114C151.93,282.243,151.224,281.95,150.472,281.95z"></path><path fill="#41d88d" d="M161.104,282.39c1.654,0,3-1.346,3-3v-25.773c0-9.375-7.628-17.003-17.003-17.003s-17.003,7.627-17.003,17.003v19.175c0,1.654,1.346,3,3,3c1.654,0,3-1.346,3-3v-19.175c0-6.067,4.937-11.003,11.004-11.003c0.351,0,0.706,0.017,1.063,0.05c5.574,0.525,9.94,5.491,9.94,11.305l0,25.421C158.104,281.044,159.449,282.39,161.104,282.39z"></path><path d="M161.104,284.39c-2.757,0-5-2.243-5-5l0-25.421c0-4.793-3.57-8.884-8.127-9.313c-5.358-0.5-9.88,3.708-9.88,8.961v19.175c0,2.757-2.243,5-5,5s-5-2.243-5-5v-19.175c0-10.478,8.525-19.003,19.003-19.003c10.479,0,19.003,8.525,19.003,19.003v25.773C166.104,282.146,163.86,284.39,161.104,284.39z M147.101,242.614c0.351,0,0.706,0.017,1.063,0.05c5.574,0.525,9.94,5.491,9.94,11.305l0,25.421c0,1.654,1.346,3,3,3s3-1.346,3-3v-25.773c0-9.375-7.628-17.003-17.003-17.003s-17.003,7.627-17.003,17.003v19.175c0,1.654,1.346,3,3,3c1.654,0,3-1.346,3-3v-19.175C136.097,247.55,141.033,242.614,147.101,242.614z"></path></g><g><path fill="#f28c1c" d="M386.516,401.752c0.531-0.531,0.824-1.237,0.824-1.988c0-0.752-0.293-1.458-0.824-1.988c-1.063-1.064-2.915-1.063-3.976-0.001l-8.115,8.114c-0.391,0.391-1.023,0.391-1.414,0l-8.115-8.114c-0.531-0.531-1.237-0.824-1.988-0.824s-1.457,0.293-1.987,0.824c-1.098,1.097-1.098,2.881-0.002,3.978l10.811,10.81c1.063,1.063,2.915,1.063,3.978,0L386.516,401.752z"></path><path fill="#fff" d="M375.743,412.525c-0.061,0.003-0.12,0.018-0.182,0.018c-1.019,0-1.976-0.396-2.696-1.117l-10.811-10.81c-0.79-0.791-1.143-1.843-1.089-2.879c-0.015,0.014-0.032,0.024-0.046,0.038c-1.098,1.097-1.098,2.881-0.002,3.978l10.811,10.81c1.063,1.063,2.915,1.063,3.978,0L375.743,412.525z"></path><path d="M373.718,415.386c-1.285,0-2.494-0.501-3.403-1.41l-10.811-10.81c-1.876-1.877-1.875-4.93,0.001-6.806c0.908-0.909,2.116-1.41,3.402-1.41s2.494,0.501,3.403,1.41l7.407,7.407l7.407-7.407c0.908-0.909,2.116-1.41,3.402-1.41s2.494,0.501,3.403,1.41c0.908,0.908,1.409,2.116,1.409,3.403c0,1.286-0.501,2.494-1.41,3.403l-10.81,10.809C376.211,414.885,375.003,415.386,373.718,415.386z M362.907,396.95c-0.751,0-1.457,0.293-1.987,0.824c-1.098,1.097-1.098,2.881-0.002,3.978l10.811,10.81c1.063,1.063,2.915,1.063,3.978,0l10.81-10.81c0.531-0.531,0.824-1.237,0.824-1.988c0-0.752-0.293-1.458-0.824-1.988c-1.063-1.064-2.915-1.063-3.976-0.001l-8.115,8.114c-0.391,0.391-1.023,0.391-1.414,0l-8.115-8.114C364.364,397.243,363.658,396.95,362.907,396.95z"></path><path fill="#f28c1c" d="M401.902,390.792c1.654,0,3-1.346,3-3v-19.175c0-9.375-7.628-17.003-17.003-17.003s-17.003,7.628-17.003,17.003v25.772c0,1.654,1.346,3,3,3s3-1.346,3-3l-0.001-25.421c0-5.814,4.366-10.779,9.94-11.304c6.513-0.619,12.067,4.533,12.067,10.952v19.175C398.903,389.446,400.249,390.792,401.902,390.792z"></path><path d="M373.896,399.39c-2.757,0-5-2.243-5-5v-25.772c0-10.479,8.524-19.003,19.003-19.003s19.003,8.524,19.003,19.003v19.175c0,2.757-2.243,5-5,5s-4.999-2.243-4.999-5v-19.175c0-5.253-4.528-9.47-9.878-8.962c-4.56,0.43-8.13,4.521-8.13,9.313l0.001,25.421C378.896,397.146,376.653,399.39,373.896,399.39z M387.899,351.614c-9.375,0-17.003,7.628-17.003,17.003v25.772c0,1.654,1.346,3,3,3s3-1.346,3-3l-0.001-25.421c0-5.814,4.366-10.779,9.94-11.304c6.513-0.619,12.067,4.533,12.067,10.952v19.175c0,1.654,1.346,3,2.999,3c1.654,0,3-1.346,3-3v-19.175C404.902,359.242,397.274,351.614,387.899,351.614z"></path></g></svg>