<svg xmlns="http://www.w3.org/2000/svg" viewBox="0 0 64 64" id="faq"><path fill="#F15439" d="M32 3C15.984 3 3 15.984 3 32s12.984 29 29 29 29-12.984 29-29S48.016 3 32 3zm0 52C19.297 55 9 44.703 9 32S19.297 9 32 9s23 10.297 23 23-10.297 23-23 23z"></path><path fill="#FFF" d="M32 9C19.297 9 9 19.297 9 32s10.297 23 23 23 23-10.297 23-23S44.703 9 32 9zm0 39a3 3 0 1 1 0-6 3 3 0 0 1 0 6zm10.071-20.863-7.109 6.221V38h-7.108v-6.715l7.108-5.807v-4.147c0-.395-.198-.593-.592-.593h-4.74c-.395 0-.592.198-.592.593v4.147h-7.109v-4.739c0-1.5.415-2.665 1.244-3.494.83-.829 1.994-1.245 3.496-1.245h10.663c1.5 0 2.666.416 3.495 1.245.829.829 1.244 1.994 1.244 3.494v6.398z"></path><circle cx="32" cy="45" r="3" fill="#399BB9"></circle><path fill="#399BB9" d="M37.331 16H26.669c-1.502 0-2.666.416-3.495 1.245-.829.829-1.244 1.994-1.244 3.494v4.739h7.109v-4.147c0-.395.197-.593.592-.593h4.739c.394 0 .592.198.592.593v4.147l-7.108 5.807V38h7.108v-4.641l7.109-6.221V20.74c0-1.5-.415-2.665-1.244-3.494-.83-.83-1.995-1.246-3.496-1.246z"></path><path d="M32 62C15.458 62 2 48.542 2 32S15.458 2 32 2s30 13.458 30 30-13.458 30-30 30zm0-58C16.561 4 4 16.561 4 32s12.561 28 28 28 28-12.561 28-28S47.439 4 32 4z"></path><path d="M32 56C18.767 56 8 45.233 8 32S18.767 8 32 8s24 10.767 24 24-10.767 24-24 24zm0-46c-12.131 0-22 9.869-22 22s9.869 22 22 22 22-9.869 22-22-9.869-22-22-22z"></path><path d="M32 49c-2.206 0-4-1.794-4-4s1.794-4 4-4 4 1.794 4 4-1.794 4-4 4zm0-6c-1.103 0-2 .897-2 2s.897 2 2 2 2-.897 2-2-.897-2-2-2zM34.962 39h-7.108a1 1 0 0 1-1-1v-6.715a1 1 0 0 1 .367-.774l6.741-5.507v-3.265h-3.924v3.739a1 1 0 0 1-1 1h-7.109a1 1 0 0 1-1-1v-4.739c0-1.768.517-3.181 1.537-4.201C23.487 15.518 24.9 15 26.668 15h10.663c1.768 0 3.182.518 4.202 1.538 1.02 1.021 1.537 2.434 1.537 4.201v6.398c0 .288-.125.563-.341.753l-6.768 5.922V38a.998.998 0 0 1-.999 1zm-6.108-2h5.108v-3.642c0-.288.125-.563.341-.753l6.768-5.922v-5.944c0-1.235-.311-2.146-.952-2.787-.64-.64-1.552-.952-2.787-.952H26.668c-1.235 0-2.147.312-2.788.952-.64.641-.951 1.552-.951 2.787v3.739h5.109v-3.146c0-.953.64-1.593 1.592-1.593h4.739c.952 0 1.592.64 1.592 1.593v4.146a1 1 0 0 1-.367.774l-6.741 5.507V37z"></path></svg>