<svg xmlns="http://www.w3.org/2000/svg" viewBox="0 0 64 64" id="information"><path fill="#399BB9" d="M32 3C15.984 3 3 15.984 3 32s12.984 29 29 29 29-12.984 29-29S48.016 3 32 3zm0 52C19.297 55 9 44.703 9 32S19.297 9 32 9s23 10.297 23 23-10.297 23-23 23z"></path><path fill="#FFF" d="M32 9C19.297 9 9 19.297 9 32s10.297 23 23 23 23-10.297 23-23S44.703 9 32 9zm3 41h-6V25h6v25zm-3-29a4 4 0 1 1 0-8 4 4 0 0 1 0 8z"></path><path fill="#F15439" d="M29 25h6v25h-6z"></path><circle cx="32" cy="17" r="4" fill="#F15439"></circle><path d="M32 62C15.458 62 2 48.542 2 32S15.458 2 32 2s30 13.458 30 30-13.458 30-30 30zm0-58C16.561 4 4 16.561 4 32s12.561 28 28 28 28-12.561 28-28S47.439 4 32 4z"></path><path d="M32 56C18.767 56 8 45.233 8 32S18.767 8 32 8s24 10.767 24 24-10.767 24-24 24zm0-46c-12.131 0-22 9.869-22 22s9.869 22 22 22 22-9.869 22-22-9.869-22-22-22z"></path><path d="M36 51h-8V24h8v27zm-6-2h4V26h-4v23zM32 22c-2.757 0-5-2.243-5-5s2.243-5 5-5 5 2.243 5 5-2.243 5-5 5zm0-8c-1.654 0-3 1.346-3 3s1.346 3 3 3 3-1.346 3-3-1.346-3-3-3z"></path></svg>