<svg xmlns="http://www.w3.org/2000/svg" width="655.359" height="655.359" fill-rule="evenodd" clip-rule="evenodd" image-rendering="optimizeQuality" shape-rendering="geometricPrecision" text-rendering="geometricPrecision" viewBox="0 0 6.827 6.827" id="list"><defs><clipPath id="a"><path d="M3.413 0a3.413 3.413 0 1 1 0 6.827 3.413 3.413 0 0 1 0-6.827z"></path></clipPath></defs><path fill="#00796b" d="M3.413 0a3.413 3.413 0 1 1 0 6.827 3.413 3.413 0 0 1 0-6.827z"></path><g fill="#065e53" clip-path="url(#a)"><path d="m4.096 1.515 3.786 3.787.005.005.004.006.005.005.004.006.004.006.004.006.003.006.004.006.004.006.003.006.003.007.003.006.003.007.003.007.002.006.003.007.002.007.002.007.002.007.002.007.001.007.002.007.001.008.001.007.001.007v.008l.001.007v.015L4.168 1.708v-.015l-.001-.007-.001-.008v-.007l-.001-.008-.002-.007-.001-.007-.002-.007-.001-.007-.002-.007-.002-.007-.003-.007-.002-.007-.003-.007-.002-.006-.003-.007-.003-.006-.003-.007-.004-.006-.003-.006-.004-.006-.004-.006-.004-.006-.004-.006-.004-.006-.004-.006-.005-.005z"></path><path d="m4.168 1.708 3.786 3.786v.018L4.168 1.725zM4.819 1.79l3.787 3.787.002.003.003.004.002.003.003.004.002.003.002.004.003.003.002.004.002.004.002.004.002.004.001.004.002.004.002.004.001.004.001.004.002.005.001.004.001.004.001.004.001.005v.004l.001.005.001.004V5.69L4.86 1.904V1.89l-.001-.004v-.005l-.001-.004-.001-.004v-.005l-.001-.004-.001-.005-.002-.004-.001-.004-.001-.004-.002-.004-.001-.004-.002-.004-.002-.004-.002-.004-.001-.004-.002-.004-.003-.004-.002-.003-.002-.004-.002-.004-.003-.003-.002-.004-.003-.003z"></path><path d="M4.86 1.904 8.646 5.69v3.331L4.86 5.235z"></path><path d="m4.86 5.235 3.786 3.786V9.039l-.001.005-.001.004v.004l-.001.005-.001.004-.001.004-.001.005-.002.004-.001.004-.001.004-.002.004-.002.004-.001.004-.002.004-.002.004-.002.004-.002.004-.003.003-.002.004-.002.004-.003.003-.002.004-.003.003-.002.003-.003.004-.003.003-.003.003-.003.003-3.786-3.786.003-.003.003-.003.002-.004.003-.003.003-.003.003-.004.002-.003.003-.004.002-.003.002-.004.002-.004.003-.003.002-.004.001-.004.002-.004.002-.004.002-.004.001-.004.002-.004.001-.004.001-.005.002-.004.001-.004.001-.004v-.005l.001-.004.001-.005v-.004l.001-.005V5.239zM4.808 5.361l3.786 3.786-.003.003-.003.003-.003.003-.004.003-.003.002-.003.003-.004.003-.003.002-.004.002-.004.003-.003.002-.004.002-.004.002-.004.002-.004.002-.004.002-.004.001-.004.002-.004.001-.004.002-.004.001-.005.001-.004.001-.004.001-.005.001-.004.001H8.49l-.004.001H8.477l-.005.001h-.004L4.681 5.413h.014l.005-.001h.004l.005-.001h.004l.004-.001.005-.001.004-.001.004-.001.005-.002.004-.001.004-.002.004-.001.004-.002.004-.002.004-.001.004-.002.004-.002.003-.002.004-.003.004-.002.003-.002.004-.003.003-.002.004-.003.003-.003.003-.002.004-.003.003-.003z"></path><path d="M4.681 5.413 8.468 9.2H5.931L2.145 5.413z"></path><path d="M2.145 5.413 5.931 9.2h-.004l-.005-.001H5.913l-.004-.001h-.005L5.9 9.197l-.004-.001-.005-.001-.004-.001-.004-.001-.005-.001-.004-.002-.004-.001-.004-.002-.004-.001-.004-.002-.004-.002-.004-.002-.004-.002-.003-.002-.004-.002-.004-.003-.003-.002-.004-.002-.003-.003-.004-.003-.003-.002-3.786-3.787.003.003.003.003.004.002.003.003.004.002.004.002.003.003.004.002.004.002.004.002.004.001.004.002.004.002.004.001.004.002.004.001.004.002.005.001.004.001.004.001.005.001h.004l.004.001h.005l.004.001h.01z"></path><path d="M2.745 1.5a.294.294 0 0 1 .209-.087h.92a.294.294 0 0 1 .294.295v.017h.513a.178.178 0 0 1 .18.18v3.33a.178.178 0 0 1-.18.178H2.145a.178.178 0 0 1-.178-.178v-3.33a.178.178 0 0 1 .178-.18h.514v-.017c0-.08.033-.155.086-.208z"></path></g><path fill="none" d="M3.413 0a3.413 3.413 0 1 1 0 6.827 3.413 3.413 0 0 1 0-6.827z"></path><path fill="#fffffe" fill-rule="nonzero" d="M2.145 1.725h.576c.035 0 .063.028.063.063v.068a.17.17 0 0 0 .17.17h.92a.17.17 0 0 0 .169-.17v-.068c0-.035.028-.063.062-.063h.576a.178.178 0 0 1 .18.18v3.33a.178.178 0 0 1-.18.178H2.145a.178.178 0 0 1-.179-.178v-3.33a.178.178 0 0 1 .18-.18zm.514.125h-.514a.054.054 0 0 0-.038.016.054.054 0 0 0-.016.038v3.33c0 .015.007.029.016.039.01.01.023.015.038.015h2.536a.054.054 0 0 0 .038-.015.054.054 0 0 0 .016-.038v-3.33a.054.054 0 0 0-.016-.039.054.054 0 0 0-.038-.016h-.513v.006a.294.294 0 0 1-.295.295h-.92a.294.294 0 0 1-.294-.295V1.85z"></path><path fill="#fffffe" fill-rule="nonzero" d="M2.954 1.413h.92a.294.294 0 0 1 .294.295v.148a.294.294 0 0 1-.295.295h-.92a.294.294 0 0 1-.294-.295v-.148a.294.294 0 0 1 .295-.295zm.92.125h-.92a.17.17 0 0 0-.17.17v.148a.17.17 0 0 0 .17.17h.92a.17.17 0 0 0 .169-.17v-.148a.17.17 0 0 0-.17-.17zM2.368 2.635h.432c.034 0 .062.028.062.063v.431a.063.063 0 0 1-.062.063h-.432a.063.063 0 0 1-.062-.063v-.431c0-.035.028-.063.062-.063zm.37.125h-.307v.307h.306V2.76zm1.718.216a.063.063 0 0 0 0-.125h-1.43a.063.063 0 0 0 0 .125h1.43zm-2.088.53h.432c.034 0 .062.029.062.063v.432a.063.063 0 0 1-.062.062h-.432a.063.063 0 0 1-.062-.062v-.432c0-.034.028-.062.062-.062zm.37.126h-.307v.306h.306v-.306zm1.718.215a.063.063 0 0 0 0-.125h-1.43a.063.063 0 0 0 0 .125h1.43zm-2.088.531h.432c.034 0 .062.028.062.063v.431a.063.063 0 0 1-.062.062h-.432a.063.063 0 0 1-.062-.062v-.431c0-.035.028-.063.062-.063zm.37.125h-.307v.306h.306v-.306zm1.718.216a.063.063 0 0 0 0-.125h-1.43a.063.063 0 0 0 0 .125h1.43z"></path></svg>