<svg xmlns="http://www.w3.org/2000/svg" data-name="Layer 1" viewBox="0 0 24 24" id="settings"><defs><linearGradient id="a" x1="4.643" x2="33.111" y1="11.885" y2="12.331" gradientUnits="userSpaceOnUse"><stop offset="0" stop-color="#96369f"></stop><stop offset="1" stop-color="#01b3ed"></stop></linearGradient></defs><path fill="url(#a)" d="M1.107,17.134l1,1.733a3.007,3.007,0,0,0,4.1,1.1l.817-.472A8.912,8.912,0,0,0,8,20.058V21a3,3,0,0,0,3,3h2a3,3,0,0,0,3-3v-.942a8.912,8.912,0,0,0,.977-.566l.817.472a3,3,0,0,0,4.1-1.1l1-1.733a3,3,0,0,0-1.1-4.1l-.815-.471a7.611,7.611,0,0,0,0-1.13l.815-.471a3,3,0,0,0,1.1-4.1l-1-1.733a3.007,3.007,0,0,0-4.1-1.1l-.817.472A8.912,8.912,0,0,0,16,3.942V3a3,3,0,0,0-3-3H11A3,3,0,0,0,8,3v.942a8.912,8.912,0,0,0-.977.566l-.817-.472a3.007,3.007,0,0,0-4.1,1.1l-1,1.733a3,3,0,0,0,1.1,4.1l.815.471a7.611,7.611,0,0,0,0,1.13l-.815.471A3,3,0,0,0,1.107,17.134Zm2.1-2.366,1.379-.8a1,1,0,0,0,.49-1,7.228,7.228,0,0,1,0-1.938,1,1,0,0,0-.49-1l-1.379-.8A1,1,0,0,1,2.84,7.866l1-1.732a1,1,0,0,1,1.366-.366l1.378.8A1,1,0,0,0,7.7,6.485a6.984,6.984,0,0,1,1.675-.971A1,1,0,0,0,10,4.587V3a1,1,0,0,1,1-1h2a1,1,0,0,1,1,1V4.587a1,1,0,0,0,.625.927,6.984,6.984,0,0,1,1.675.971,1,1,0,0,0,1.116.078l1.378-.795a1,1,0,0,1,1.366.366l1,1.732a1,1,0,0,1-.366,1.366l-1.379.8a1,1,0,0,0-.49,1A7.131,7.131,0,0,1,19,12a7.131,7.131,0,0,1-.075.969,1,1,0,0,0,.49,1l1.379.8a1,1,0,0,1,.366,1.366l-1,1.732a1,1,0,0,1-1.366.366l-1.378-.795a1,1,0,0,0-1.116.078,6.984,6.984,0,0,1-1.675.971,1,1,0,0,0-.625.927V21a1,1,0,0,1-1,1H11a1,1,0,0,1-1-1V19.413a1,1,0,0,0-.625-.927A6.984,6.984,0,0,1,7.7,17.515a1.041,1.041,0,0,0-1.116-.078l-1.378.795a1,1,0,0,1-1.366-.366l-1-1.732A1,1,0,0,1,3.206,14.768Z"></path><path fill="url(#a)" d="M12,17a5,5,0,1,0-5-5A5.006,5.006,0,0,0,12,17Zm0-8a3,3,0,1,1-3,3A3,3,0,0,1,12,9Z"></path></svg>