<svg xmlns="http://www.w3.org/2000/svg" width="163.839" height="163.839" fill-rule="evenodd" clip-rule="evenodd" image-rendering="optimizeQuality" shape-rendering="geometricPrecision" text-rendering="geometricPrecision" viewBox="0 0 1707 1707" id="tools"><defs><linearGradient id="a" x1="-69.913" x2="1776.57" y1="83.961" y2="1622.7" gradientUnits="userSpaceOnUse"><stop offset="0" stop-color="#08b6ff"></stop><stop offset=".012" stop-color="#2790ff"></stop><stop offset=".259" stop-color="#47c7ff"></stop><stop offset=".478" stop-color="#4cc9ff"></stop><stop offset=".8" stop-color="#4a9eff"></stop><stop offset=".929" stop-color="#466aff"></stop><stop offset="1" stop-color="#466aff"></stop></linearGradient></defs><path fill="url(#a)" d="M185 1707c-5,0 -9,-2 -12,-5l-168 -168c-4,-5 -6,-11 -4,-16l61 -230c2,-6 6,-10 12,-12l167 -45 354 -354 235 234 -355 355 -44 167c-2,5 -6,10 -12,12l-230 61c-1,0 -3,1 -4,1zm1345 -11c-44,0 -86,-17 -117,-48l-1086 -1087c-13,2 -27,3 -40,3 -74,0 -143,-29 -195,-81 -69,-69 -96,-166 -74,-261 2,-6 6,-10 12,-12 6,-1 12,0 16,4l159 159 168 -168 -159 -159c-4,-4 -5,-10 -4,-16 2,-6 6,-10 12,-12 22,-5 43,-7 65,-7 74,0 144,28 196,81 62,61 90,149 78,235l1087 1086c31,31 48,73 48,117 0,45 -17,86 -48,118 -32,31 -73,48 -118,48zm-653 -1101l354 -354 45 -167c2,-6 6,-10 12,-12l229 -61c6,-2 12,0 17,4l168 168c4,4 6,10 4,16l-61 230c-2,6 -7,10 -12,12l-167 44 -355 355 -234 -235zm-669 1026c-5,0 -9,-2 -12,-5l-105 -105c-5,-5 -6,-11 -5,-16l39 -144c1,-6 6,-11 12,-12l144 -39c5,-1 12,0 16,5l105 105c4,4 6,10 4,16l-38 144c-2,6 -6,10 -12,12l-144 38c-1,1 -3,1 -4,1zm1214 -1214c-5,0 -9,-2 -12,-5l-105 -105c-5,-4 -6,-11 -5,-16l39 -144c1,-6 6,-11 12,-12l144 -39c5,-1 11,0 16,5l105 105c4,4 6,10 4,16l-38 144c-2,6 -6,10 -12,12l-144 38c-1,1 -3,1 -4,1z"></path></svg>