<svg xmlns="http://www.w3.org/2000/svg" width="96" height="96" fill="none" viewBox="0 0 96 96" id="account"><g filter="url(#filter0_f_25_11142)" opacity=".1"><path fill="#063289" d="M89 49C89 71.0914 71.0914 89 49 89C26.9086 89 9 71.0914 9 49C9 26.9086 26.9086 9 49 9C71.0914 9 89 26.9086 89 49Z"></path></g><path fill="url(#paint0_linear_25_11142)" d="M88 48C88 70.0914 70.0914 88 48 88C25.9086 88 8 70.0914 8 48C8 25.9086 25.9086 8 48 8C70.0914 8 88 25.9086 88 48Z"></path><path fill="url(#paint1_linear_25_11142)" d="M84 48C84 67.8823 67.8823 84 48 84C28.1177 84 12 67.8823 12 48C12 28.1177 28.1177 12 48 12C67.8823 12 84 28.1177 84 48Z"></path><path fill="url(#paint2_linear_25_11142)" d="M82 48C82 66.7777 66.7777 82 48 82C29.2223 82 14 66.7777 14 48C14 29.2223 29.2223 14 48 14C66.7777 14 82 29.2223 82 48Z"></path><path fill="url(#paint3_linear_25_11142)" fill-rule="evenodd" d="M49.6527 16.0419C49.1053 16.0141 48.5543 16 48 16C30.3269 16 16 30.3269 16 48C16 59.0621 21.6131 68.8132 30.1465 74.5605L49.6527 16.0419Z" clip-rule="evenodd"></path><g filter="url(#filter1_f_25_11142)" opacity=".2"><path fill="#06102C" fill-rule="evenodd" d="M49 47C53.4183 47 57 40.8212 57 36.6154C57 32.4095 53.4183 29 49 29C44.5817 29 41 32.4095 41 36.6154C41 40.8212 44.5817 47 49 47ZM30 59.3956C30 55.0215 35.0527 49.6336 41.4073 47C43.3267 50.0526 46.0191 52.1845 49 52.1845C51.9809 52.1845 54.6733 50.0526 56.5927 47C62.9473 49.6336 68 55.0215 68 59.3956C68 67.1264 61.7618 70 49 70C36.2382 70 30 67.1264 30 59.3956Z" clip-rule="evenodd"></path></g><path fill="url(#paint4_linear_25_11142)" fill-rule="evenodd" d="M48 46C52.4183 46 56 39.8212 56 35.6154C56 31.4095 52.4183 28 48 28C43.5817 28 40 31.4095 40 35.6154C40 39.8212 43.5817 46 48 46ZM29 58.3956C29 54.0215 34.0527 48.6336 40.4073 46C42.3267 49.0526 45.0191 50.1845 48 50.1845C50.9809 50.1845 53.6733 49.0526 55.5927 46C61.9473 48.6336 67 54.0215 67 58.3956C67 66.1264 60.7618 69 48 69C35.2382 69 29 66.1264 29 58.3956Z" clip-rule="evenodd"></path><path fill="url(#paint5_linear_25_11142)" d="M41 35.7692C41 32.0307 44.134 29 48 29V45C44.134 45 41 39.5078 41 35.7692Z"></path><path fill="url(#paint6_linear_25_11142)" d="M39 49C41 51 44.5 52.5 48 52.5V67C37 67 31 64 31 59C31 55.3867 34.5 51.5 39 49Z"></path><defs><linearGradient id="paint0_linear_25_11142" x1="8" x2="88" y1="8" y2="88" gradientUnits="userSpaceOnUse"><stop stop-color="#F1F6FF"></stop><stop offset="1" stop-color="#D1D9E8"></stop></linearGradient><linearGradient id="paint1_linear_25_11142" x1="12" x2="84" y1="12" y2="84" gradientUnits="userSpaceOnUse"><stop stop-color="#161D28"></stop><stop offset="1" stop-color="#424A5E"></stop></linearGradient><linearGradient id="paint2_linear_25_11142" x1="14" x2="82" y1="14" y2="82" gradientUnits="userSpaceOnUse"><stop stop-color="#424A5E"></stop><stop offset="1" stop-color="#161D28"></stop></linearGradient><linearGradient id="paint3_linear_25_11142" x1="16" x2=".799" y1="16" y2="55.801" gradientUnits="userSpaceOnUse"><stop stop-color="#EAF9FF" stop-opacity=".1"></stop><stop offset="1" stop-color="#fff" stop-opacity="0"></stop></linearGradient><linearGradient id="paint4_linear_25_11142" x1="29" x2="69.882" y1="28" y2="65.891" gradientUnits="userSpaceOnUse"><stop stop-color="#4DE4DB"></stop><stop offset="1" stop-color="#1BA7D3"></stop></linearGradient><linearGradient id="paint5_linear_25_11142" x1="31" x2="19.297" y1="29" y2="52.853" gradientUnits="userSpaceOnUse"><stop stop-color="#fff" stop-opacity=".4"></stop><stop offset="1" stop-color="#fff" stop-opacity="0"></stop></linearGradient><linearGradient id="paint6_linear_25_11142" x1="31" x2="19.297" y1="29" y2="52.853" gradientUnits="userSpaceOnUse"><stop stop-color="#fff" stop-opacity=".4"></stop><stop offset="1" stop-color="#fff" stop-opacity="0"></stop></linearGradient><filter id="filter0_f_25_11142" width="88" height="88" x="5" y="5" color-interpolation-filters="sRGB" filterUnits="userSpaceOnUse"><feFlood flood-opacity="0" result="BackgroundImageFix"></feFlood><feBlend in="SourceGraphic" in2="BackgroundImageFix" result="shape"></feBlend><feGaussianBlur result="effect1_foregroundBlur_25_11142" stdDeviation="2"></feGaussianBlur></filter><filter id="filter1_f_25_11142" width="42" height="45" x="28" y="27" color-interpolation-filters="sRGB" filterUnits="userSpaceOnUse"><feFlood flood-opacity="0" result="BackgroundImageFix"></feFlood><feBlend in="SourceGraphic" in2="BackgroundImageFix" result="shape"></feBlend><feGaussianBlur result="effect1_foregroundBlur_25_11142" stdDeviation="1"></feGaussianBlur></filter></defs></svg>